<svg id="Capa_1" data-name="Capa 1" xmlns="http://www.w3.org/2000/svg" viewBox="0 0 471.76 414.47"><defs><style>.cls-1{opacity:0.45;}.cls-2{fill:#d9d7d7;}</style></defs><g id="ueQYhJ.tif" class="cls-1"><path class="cls-2" d="M354.71,360.61c0,1,0,1.83,0,2.62a7.24,7.24,0,0,0,4.2,6.67,7.35,7.35,0,0,0,6.36-.09,39.27,39.27,0,0,0,4.63-2.54,9.23,9.23,0,0,0,2.74-2.57,13.1,13.1,0,0,0,1.47-3.9,74.69,74.69,0,0,0,2.11-23.27,141.78,141.78,0,0,0-2.16-17.32,184.92,184.92,0,0,0-4.89-19.41c-2.33-7.34-4.8-14.64-8.41-21.49-4.73-9-10.47-17.22-18.18-24-7.11-6.21-15.06-10.82-24.38-12.87a11.44,11.44,0,0,0-8.9,1.41c-5,3.13-4.62,10-1,13.21,2.81,2.51,5.63,5,8.37,7.58a88.33,88.33,0,0,1,11.81,13.38A185.32,185.32,0,0,1,339,294.68a102.6,102.6,0,0,1,9.1,22,168.9,168.9,0,0,1,4.48,21C353.7,345.36,354.29,353.1,354.71,360.61ZM168.8,73.36c-2.49,0-5-.08-7.48,0-1.93.08-3.85.41-5.78.63a7.7,7.7,0,0,0-6.32,6.83,5.46,5.46,0,0,0,3.22,5.9,15,15,0,0,0,4.18,1.14c2.65.26,5.33.26,8,.35a161.31,161.31,0,0,1,81.69,25.57,32.1,32.1,0,0,1,4.76,3.89c2.48,2.37,4.85,4.87,7.23,7.35a21.3,21.3,0,0,1,2.34,2.77c1.68,2.49,3.23,5.08,4.91,7.58a52.76,52.76,0,0,1,5.65,11.29,64,64,0,0,1,3.39,12.76,82.66,82.66,0,0,1,1.19,13.22c0,3.59,0,7.18-.26,10.75-.31,5-.62,10-1.3,14.87a155.75,155.75,0,0,1-6.08,26.6c-1.69,5.19-3.11,10.5-6.11,15.16-1,1.49-1.84,3-2.7,4.55a33.35,33.35,0,0,0-3.78,8.47c-.46,2,.3,3.21,2.32,3.5a8.26,8.26,0,0,0,2.71-.13,13.38,13.38,0,0,0,6.75-3.75c4.36-4.18,7.05-9.41,9.14-15A113.34,113.34,0,0,0,281.62,219c1.07-5.66,1.91-11.35,2.44-17.09q.49-5.25.86-10.52c.24-3.69.49-7.38.56-11.08.06-3.15-.11-6.31-.21-9.47a119.11,119.11,0,0,0-1.59-16.1,73.23,73.23,0,0,0-7.23-22.25,54.63,54.63,0,0,0-9.79-13.76c-2.07-2-4.06-4.16-6.08-6.26Q223,73.4,168.8,73.36ZM63.25,239.16a16.46,16.46,0,0,0-1.84-.3c-2.6-.14-5.21-.22-7.81-.38a34.11,34.11,0,0,0-8.32.53,55.93,55.93,0,0,0-12.61,4.13,46.13,46.13,0,0,0-9,4.86,41.58,41.58,0,0,0-11.31,13.19,15.76,15.76,0,0,0-2.07,8,7.82,7.82,0,0,0,1.52,4.59,11.25,11.25,0,0,0,12.55,3.88c4.21-1.39,8.39-2.88,12.51-4.49,5.71-2.21,11.29-4.78,17.17-6.55,2.91-.87,5.83-1.68,8.7-2.67,7.24-2.51,14.56-4.62,22.26-5.09a93.73,93.73,0,0,1,19.8.87,156.09,156.09,0,0,1,20.88,4.86q14.24,4.18,28.27,9c3.21,1.1,6.5,2,9.78,2.83a10.47,10.47,0,0,0,7.45-.74,3.47,3.47,0,0,0,.44-6.08,18.56,18.56,0,0,0-5.71-2.3c-2.3-.56-4.64-1-6.88-1.74-3.28-1.08-6.52-2.34-9.74-3.61-8.92-3.51-17.83-7.09-26.75-10.61-2.25-.89-4.53-1.69-6.7-2.49-.81,1.9-1.42,3.69-2.31,5.32a5,5,0,0,1-3.55,2.89c-3.4.5-5.88-1.55-5.92-5,0-2,.2-4,.29-6a12.34,12.34,0,0,0-.12-1.34l-.37-.07c-.22.38-.47.76-.66,1.16-.9,2-1.65,4-2.7,5.95s-3.08,3.43-6.55,2.73c-2.51-.51-3.46-2.33-3.75-4.57a32.25,32.25,0,0,1-.1-4.51,11,11,0,0,0-.16-3.12,14,14,0,0,0-1.11,2.48c-.74,2-1.37,4-2.91,5.62a4.71,4.71,0,0,1-7.72-1.8,12.49,12.49,0,0,1-.41-3.23c0-1.21.17-2.42.22-3.63a5.37,5.37,0,0,0-.18-1.1,3.11,3.11,0,0,0-.93,1.2,34.18,34.18,0,0,1-2.39,4.07,5.7,5.7,0,0,1-10-1.37A46.82,46.82,0,0,1,63.25,239.16Zm343.2-68.6c0-2.15,0-2.14-1.16-3.9a21.64,21.64,0,0,0-7.23-6.56c-4.58-2.76-9.68-4.13-14.83-5.29a101,101,0,0,0-17.41-2.26c-2.54-.12-5.1-.14-7.63-.39a43.06,43.06,0,0,0-15,1.12,44.84,44.84,0,0,0-15.36,7.3c-4.54,3.31-6.66,7.85-7,13.32-.2,2.89-.33,5.79-.48,8.68a11.87,11.87,0,0,0,0,1.46c.11,1.79,1,2.54,2.76,2.13a26.36,26.36,0,0,0,4.81-1.6c2.15-1,4.14-2.3,6.33-3.17,4.4-1.77,9.11-1.91,13.77-2.13,2.59-.12,5.21.13,7.82.2a110.87,110.87,0,0,1,15.54,1.68c6.06,1,12.11,1.91,18.25,1.35a49.72,49.72,0,0,0,8.44-1.29C403.67,179.68,406.35,176.1,406.45,170.56Zm-159,84.21a4.94,4.94,0,0,0,.6-.56c.88-1.15,1.81-2.29,2.63-3.49A106.49,106.49,0,0,0,263,226.38a130,130,0,0,0,5.55-20.53c1.16-6.33,1.94-12.71,2.58-19.11a108.68,108.68,0,0,0,.35-19.26,65.21,65.21,0,0,0-5.84-22,80.7,80.7,0,0,0-10-16.89,92.8,92.8,0,0,0-6.38-6.94,20.6,20.6,0,0,0-6.17-4.43,11.66,11.66,0,0,1-3.63-2.31,12.91,12.91,0,0,0-8.5-4.11c-4.53-.44-8.45.65-11.3,4.46a20.29,20.29,0,0,1-1.55,1.79,26.94,26.94,0,0,0-4.5,7,61.49,61.49,0,0,1-4.85,8.47,24.86,24.86,0,0,1-11.88,9c-3.18,1.15-6.51,1.89-9.79,2.77a28,28,0,0,0-9.86,4.54c-2.36,1.8-3.8,4.07-3.63,7.16.05.75.24,1.4,1.09,1.41a48.13,48.13,0,0,0,6.69-.09,3.46,3.46,0,0,0,3.14-2.91A3.59,3.59,0,0,1,188,151a15.27,15.27,0,0,1,3.43-.19,40.2,40.2,0,0,1,5.88,1.15,12.73,12.73,0,0,0,12.11-2.56,27.41,27.41,0,0,0,6.79-8.5c2.27-4.22,4.31-8.57,6.45-12.86,1.12-2.24,2.6-4.2,5-5.09a16.08,16.08,0,0,1,8.62-.54,2.55,2.55,0,0,1,.67.27c3.82,1.8,6.67,4.78,9.34,7.91a104.5,104.5,0,0,1,8.59,11.95,53.86,53.86,0,0,1,6.39,14.31,74.76,74.76,0,0,1,2.84,21c0,1.7-.08,3.4-.22,5.09-.3,3.51-.52,7-1,10.51a157.06,157.06,0,0,1-5.35,22.1,80.62,80.62,0,0,1-8.66,19.4c-1.74,2.85-3.66,5.58-5.52,8.36-1,1.54-1.13,2.81,0,3.95A15.31,15.31,0,0,1,247.46,254.77Zm-46.7-8.13h.29c0,1.7-.09,3.41,0,5.1A28.46,28.46,0,0,0,203.76,263a30.93,30.93,0,0,0,11.05,11.85,18.15,18.15,0,0,0,10.64,3.2,58.75,58.75,0,0,0,6.82-.92,11.32,11.32,0,0,0,8.41-6.08c3.23-5.91,3.82-12.11.85-18.32a17.42,17.42,0,0,0-9.42-8.91,7,7,0,0,0-8.5,3,5.54,5.54,0,0,0,.07,6.17c.4.61.82,1.21,1.18,1.85a11.11,11.11,0,0,1,1.62,7.14,2.85,2.85,0,0,1-3,2.76,5.81,5.81,0,0,1-4.26-1.79,22.32,22.32,0,0,1-7.09-12.64c-.77-4.3-.12-8.59.23-12.88.31-3.91.92-7.79.66-11.76a76.06,76.06,0,0,0-1.06-9.38c-1.49-7.78-5.61-13.86-11.67-18.75a46.69,46.69,0,0,0-14.59-7.71,49.8,49.8,0,0,0-11.71-2.5c-5.91-.51-11.59.76-17.25,2.19a12.41,12.41,0,0,0-2.72,1,1.53,1.53,0,0,0-.68,2.43c1.27,1.63,2.63,3.17,4,4.74a3.64,3.64,0,0,0,3.66,1.07,9.76,9.76,0,0,0,1.58-.44A31.1,31.1,0,0,1,174.91,197a33.47,33.47,0,0,1,15.22,5.09c8.44,5.43,12.52,13.3,12.22,23.34-.09,3.33-.47,6.65-.72,10Zm117.8-97.81h0v4.36a2.12,2.12,0,0,0,3.81,1.38,6.57,6.57,0,0,0,1.13-1.64c1-2.2,1.94-4.45,3-6.64a10.17,10.17,0,0,1,1.71-3,57.8,57.8,0,0,1,12.12-9.23,83.72,83.72,0,0,1,23.88-8.93c3.52-.77,7.14-1.07,10.72-1.54a76.43,76.43,0,0,1,7.67-.81,9.36,9.36,0,0,0,5.06-1.63,2.83,2.83,0,0,0,1.15-1.67,6.51,6.51,0,0,0-.51-4.08,54.27,54.27,0,0,0-5.3-9,18.53,18.53,0,0,0-10.41-6.61,33.55,33.55,0,0,0-13.36-.24,61.86,61.86,0,0,0-13.19,4c-3.74,1.45-7.4,3.1-11.05,4.77-2.63,1.22-5.24,2.53-7.76,4s-5,3.19-7.5,4.72a7,7,0,0,0-2.76,3.23,10.36,10.36,0,0,0-.61,6.23c.27,1.25.69,2.46.89,3.71.49,3,1.06,6,1.27,9C318.73,142.42,318.56,145.63,318.56,148.83ZM144.09,389.16c1.27,0,2.55,0,3.82,0a9.79,9.79,0,0,0,7.62-3.75,61.87,61.87,0,0,0,4.51-6.82c1.81-3.1,3.36-6.34,5.17-9.44a9.06,9.06,0,0,1,6.73-4.49,8.48,8.48,0,0,0,1.95-.43,6,6,0,0,0,2-1.15c2.08-2,3.1-4.77,4.42-7.28a31.16,31.16,0,0,0,1.69-4.6,4.77,4.77,0,0,0-.74-4c-1.08-1.89-2.54-2.22-4.47-1.13a6.52,6.52,0,0,0-1.49,1,44.68,44.68,0,0,0-4.11,4.38c-2.13,2.8-4,5.77-6.11,8.63a33.6,33.6,0,0,1-4.22,5.42,25.9,25.9,0,0,0-3.69,4.44c-1,1.49-2.12,3-3.25,4.4a11.29,11.29,0,0,1-5.47,3.78,41.84,41.84,0,0,1-16.53,2.19,14.71,14.71,0,0,1-9.54-4,52.62,52.62,0,0,0-11.35-8.2c-2.78-1.5-5.6-2.95-8.8-3.33-1.57-.19-3.15-.27-4.7-.52a65.8,65.8,0,0,1-8.19-1.58A67.77,67.77,0,0,1,82,359.6a9.45,9.45,0,0,1-5.25-5.75c-1.3-3.66-2.64-7.3-3.88-11-1.19-3.51-2.23-7.07-3.44-10.57-1.16-3.33-3.63-5.86-5.59-8.68-2.62-3.77-6.37-4.82-10.77-3.94a39.19,39.19,0,0,0-10,3.94A21.66,21.66,0,0,0,36.84,328a7.19,7.19,0,0,0-2,7.19,5.19,5.19,0,0,0,4.54,3.89,4.44,4.44,0,0,0,4.6-2.82c.27-.54.49-1.11.74-1.66a4.34,4.34,0,0,1,2.8-2.42A6.39,6.39,0,0,1,56,337.51,25.86,25.86,0,0,0,58.94,347a49.58,49.58,0,0,0,10.42,12.56,59.5,59.5,0,0,0,11.37,7.86,26.27,26.27,0,0,0,6,2.54,138.48,138.48,0,0,1,22.75,8.29c5,2.22,9.9,4.67,14.94,6.77C130.7,387.66,137.21,389.39,144.09,389.16ZM351.27,186.89a99.55,99.55,0,0,0-19,1.9,47.22,47.22,0,0,0-10.8,3.19,5.11,5.11,0,0,0-2.47,2.31,14.59,14.59,0,0,0-1.35,3.94,28.63,28.63,0,0,0,.89,12.41,1.54,1.54,0,0,0,1.69,1.33,7.31,7.31,0,0,0,1.62-.17c2.7-.7,5.37-1.49,8.09-2.14,3.17-.75,6.37-1.44,9.58-2a52.23,52.23,0,0,1,11-.36,69.61,69.61,0,0,1,7.07.52A107.73,107.73,0,0,1,374,211.16a51.17,51.17,0,0,1,12.79,5.59,30.3,30.3,0,0,0,7.62,3.84,6.52,6.52,0,0,0,2.47.42,6.9,6.9,0,0,0,5.6-4.37c1-2.15.46-4.26-.29-6.18a27.94,27.94,0,0,0-8.91-12,48.62,48.62,0,0,0-14.93-7.83C370,187.89,361.31,186.82,351.27,186.89Zm-33.33-79.51a10,10,0,0,0,2-.17,51.56,51.56,0,0,0,10.32-4c2.83-1.53,5.68-3,8.51-4.51,1.5-.8,3-1.64,4.48-2.4,3.19-1.6,6.37-3.22,9.61-4.73,2.69-1.26,5.55-2.18,8.16-3.58a43.12,43.12,0,0,1,9-3.43c3.72-1,5.86-3.75,7-7.3.51-1.59.39-3.24-1.17-4.24a21.1,21.1,0,0,0-4.8-2.5,64.39,64.39,0,0,0-9-2.19,30.8,30.8,0,0,0-10.31-.39,62.44,62.44,0,0,0-7.89,2.1,86,86,0,0,0-14.43,5.85c-2.9,1.52-5.78,3.07-8.68,4.58-3.27,1.72-6.74,3-9.88,5a14.59,14.59,0,0,0-4.49,4.32,4.21,4.21,0,0,0-.68,3,12.84,12.84,0,0,0,1.84,5.46A43.64,43.64,0,0,1,310,102.4C311.67,105.66,314.36,107.15,317.94,107.38Zm76.61,172.11a9.37,9.37,0,0,0,.43-1.25c.75-4.55,1.51-9.1,2.21-13.65a3.94,3.94,0,0,0-.16-1.77,27.31,27.31,0,0,0-6-10.09c-3.89-4.27-8-8.34-11.94-12.55a50.57,50.57,0,0,0-15-10.52,125.36,125.36,0,0,0-24.49-8.74c-5.17-1.32-10.39-2.49-15.62-3.52-4.22-.83-6.9.27-8.24,5-.67,2.39-1.49,4.75-2.16,7.15a14.05,14.05,0,0,0-.52,3.22c-.06,1.74.51,2.28,2.27,2.32.72,0,1.45-.14,2.18-.09,5.74.34,11.5.6,17.23,1.13a53.42,53.42,0,0,1,12.62,2.65,73.5,73.5,0,0,1,22.19,11.92,85,85,0,0,1,12.47,12c2.81,3.35,5.31,7,7.92,10.46C391.45,275.15,392.92,277.23,394.55,279.49ZM186.75,98.82c-1.93.18-3.87.3-5.79.56a20.35,20.35,0,0,0-9.39,3.7c-3.71,2.71-5.89,6.55-7.36,10.83A3.24,3.24,0,0,0,164,115,26.36,26.36,0,0,1,162,125.8a25.25,25.25,0,0,1-3.13,5.93,26.76,26.76,0,0,1-5.42,5c-3.79,2.72-7.73,5.25-11.69,7.74-6.45,4.05-10.7,9.59-12.1,17.18a8.59,8.59,0,0,0,0,4.5c1,2.75,2.87,3.24,5,1.21a19.36,19.36,0,0,0,2.89-3.5,44.87,44.87,0,0,1,10.27-11c4.17-3.32,8.25-6.76,12.29-10.25a19.07,19.07,0,0,0,4.61-5.6c1.23-2.37,2.47-4.73,3.79-7.06a43.12,43.12,0,0,1,7.28-10.15,11.25,11.25,0,0,1,7.2-3.52,35.18,35.18,0,0,1,11.84,1.38c2.79.79,5.66,1.28,8.5,1.84a7.32,7.32,0,0,0,4.54-1,1.73,1.73,0,0,0,1.13-1.71c-.09-2-.13-4-.38-6a8.31,8.31,0,0,0-1.07-2.88,16,16,0,0,0-9.63-7.57A40.77,40.77,0,0,0,186.75,98.82Zm-12.84,61.93c-5,.31-10,.55-15.06,1a50.74,50.74,0,0,0-10.52,1.77,15.76,15.76,0,0,0-7.63,4.38c-.59.66-1.24,1.27-1.88,1.89-3.11,3-3.61,6.25-.52,9.36.85.86,1.69,1.74,2.6,2.53,4.58,4,9.76,5.31,15.57,3.28,4.47-1.55,8.88-3.25,13.31-4.9,3.35-1.25,6.67-2.58,10-3.77a25.35,25.35,0,0,1,9.41-1.84c2.35.09,4.71.35,7.05.6a52.21,52.21,0,0,0,10.89.47,8.91,8.91,0,0,0,5.7-2.52c2-2.1,1.9-3.63-.75-5a38,38,0,0,0-5.76-2.24A111.41,111.41,0,0,0,173.91,160.75ZM325.05,50.07c-1.95-.32-3.88.23-5.86.56a66.26,66.26,0,0,0-13.76,4c-5,2-10,4.21-14.81,6.57-2.62,1.28-5.28,2.67-7.11,5.15a4.72,4.72,0,0,0-1.12,4.06,23.49,23.49,0,0,0,1.55,4.43c.79,1.63,1.83,3.13,2.75,4.7,1.64,2.81,5.52,4.69,8.63,3.76a61.81,61.81,0,0,0,9.32-3.58c4.62-2.26,9-4.91,13.61-7.27,3.18-1.64,6.41-3.17,9.71-4.54,3.07-1.27,6.24-2.35,9.42-3.35a9.28,9.28,0,0,0,6.06-6.07,3.2,3.2,0,0,0-1-4,20.21,20.21,0,0,0-4.15-2.21A38.64,38.64,0,0,0,325.05,50.07Zm-58,236.9c-.1-2.62-.52-4.67-2-6.22-3.86-3.94-7.76-7.85-11.74-11.66a4,4,0,0,0-4.27-.76,7.25,7.25,0,0,0-3.23,2.27c-1.26,1.48-2.44,3-3.81,4.4a27.24,27.24,0,0,1-4.14,3.52,14.58,14.58,0,0,1-8.3,2.26c-1.45,0-1.92.42-2.35,1.79a7.31,7.31,0,0,0,.14,4.12,27.57,27.57,0,0,0,9.11,14.37,22.22,22.22,0,0,0,9.71,4.72,3,3,0,0,0,3.11-.89c1-1.1,2.05-2.24,3.09-3.34,3.67-3.89,7.38-7.73,12.45-9.86a2.62,2.62,0,0,0,1.35-1.35A27.93,27.93,0,0,0,267.06,287Zm-2.84-218.2c1-.25,2-.44,3-.77,1.72-.6,2.89-2,4.14-3.21a58.25,58.25,0,0,0,6.85-8.49c1.22-1.74,2.57-3.38,3.87-5s2.67-3.45,4.06-5.14c1.8-2.21,3.61-4.42,5.5-6.55s3.55-4,4.24-6.66a3.5,3.5,0,0,0-2.24-4.55,17.28,17.28,0,0,0-8.81-.76c-3.33.54-6.3,2.15-9.23,3.76a16,16,0,0,0-3.38,2.44c-2.88,2.78-5.78,5.56-8.44,8.54-3.39,3.8-7.09,7.37-9.73,11.78s-2.5,6.59.82,9.65a9.62,9.62,0,0,0,1.3,1c1.16.78,2.38,1.48,3.49,2.32A8.23,8.23,0,0,0,264.22,68.77Zm143,88.27a18.54,18.54,0,0,0-.23-3.14,35.41,35.41,0,0,0-1.7-5.16A25.65,25.65,0,0,0,400,141a31,31,0,0,0-10.43-6.44,36.62,36.62,0,0,0-6.6-1.89,46.9,46.9,0,0,0-9.31-1.19c-3,0-5.89.43-8.83.66a38.37,38.37,0,0,0-10,2.49,54.56,54.56,0,0,0-12.11,6.09,62.39,62.39,0,0,0-8.84,6.94c-.56.55-1,1.14-.62,1.9s1.16.68,1.91.43A85.36,85.36,0,0,1,360,146c3.75-.1,7.48.22,11.22.46a92.79,92.79,0,0,1,12.46,1.93,49.11,49.11,0,0,1,12.86,4.92,78.92,78.92,0,0,0,7.69,3.28A14.26,14.26,0,0,0,407.22,157Zm-309,9.57a5,5,0,0,0,.38-1.33c0-3,.16-5.94,0-8.89a10.46,10.46,0,0,0-1.27-4.12c-2.2-4.11-5.82-6.44-10.23-7.6a35.91,35.91,0,0,0-15.16-.75c-6.61,1.07-11.58,4.46-14.55,10.57a37.93,37.93,0,0,0-3,10.1c-.31,1.7-.37,3.45-.56,5.4,5.47.16,10.67.8,16,.83-.08-.68-.17-1.1-.18-1.51-.08-2.9.3-5.76,3-7.41a12.76,12.76,0,0,1,11.88-.81c2.19.86,3.3,2.78,4.18,4.85Zm285.54,159a8.52,8.52,0,0,0,.33-.86c1.85-7.6,3.72-15.2,5.54-22.81a11.3,11.3,0,0,0,.39-3.05,45.61,45.61,0,0,0-5.32-18.78,58.61,58.61,0,0,0-9.61-13.62,81.22,81.22,0,0,0-13.84-11.75A100.06,100.06,0,0,0,343,244.87c-.67-.27-1.56-1-2.09,0-.46.84.49,1.22,1.05,1.63a101.14,101.14,0,0,1,22.53,22.57A103.78,103.78,0,0,1,376,289.49a90.7,90.7,0,0,1,7.17,27.93C383.44,320,383.56,322.6,383.75,325.56ZM341.22,216.73a9.22,9.22,0,0,0,1.52.86,23.62,23.62,0,0,0,3.48,1,89.68,89.68,0,0,1,13.15,3.57,64.15,64.15,0,0,1,18.28,10.38,82.3,82.3,0,0,1,14.44,15.33c.66.87,1.39,1.68,2.14,2.49a1.78,1.78,0,0,0,2.16.45,4.46,4.46,0,0,0,2.67-2.6c.81-2.59,1.48-5.24.88-8a20.85,20.85,0,0,0-3.32-7.41,33.68,33.68,0,0,0-11.23-10.44,55.89,55.89,0,0,0-20.51-6.57c-3-.41-6.05-.47-9.05-.83-4-.49-8,0-12,.16A2.65,2.65,0,0,0,341.22,216.73ZM68.31,221.19c-.06.5-.12.85-.15,1.19-.24,3-.5,6-.72,9.06-.19,2.66-.44,5.32-.46,8a9.34,9.34,0,0,0,.76,3.51,2.09,2.09,0,0,0,3.42.95,4.61,4.61,0,0,0,1.58-1.71c1.06-2.25,2-4.57,3-6.83a20.35,20.35,0,0,1,2-3.84c1.24-1.7,2.68-1.51,3.71.29.91,1.59.66,3.3.45,5-.25,2.11-.71,4.19-.9,6.3a14.62,14.62,0,0,0,.23,3.79,2,2,0,0,0,1.12,1.43c.47.09,1.17-.47,1.61-.9a4.65,4.65,0,0,0,.88-1.57c.87-2.14,1.69-4.3,2.53-6.44a9.3,9.3,0,0,1,2.55-4.14,1.65,1.65,0,0,1,2.86,1,4.41,4.41,0,0,1,.07,1.09c-.06,1.82-.16,3.63-.21,5.45,0,1.58-.08,3.16,0,4.74a6,6,0,0,0,.63,2.25,2.21,2.21,0,0,0,3.63.81,8.17,8.17,0,0,0,2-2.51c.78-1.57,1.28-3.28,2-4.9a15.49,15.49,0,0,1,1.49-2.89,2.72,2.72,0,0,1,2.86-1.2,2.15,2.15,0,0,1,1.58,2.22c.14,2.23.16,4.47.18,6.71,0,1.21-.17,2.42-.11,3.63a2.25,2.25,0,0,0,1.38,2.18,2,2,0,0,0,2.37-.93,9,9,0,0,0,1.54-2.86c.73-2.81,1.3-5.66,1.86-8.51a30,30,0,0,0,.32-3.05C98.92,232.9,83.49,227.76,68.31,221.19ZM252.73,21.41l.27,0a36.59,36.59,0,0,0-1.06-4.93A10.16,10.16,0,0,0,245.08,10a4.14,4.14,0,0,0-5.4,2.35,23.48,23.48,0,0,0-1.07,2.9c-.68,2.94-1.24,5.92-1.9,8.87-.39,1.7-.88,3.39-1.35,5.08-.78,2.86-1.65,5.7-2.37,8.58a27,27,0,0,0-1.11,8.38,4,4,0,0,0,5.37,3.62,18.21,18.21,0,0,0,7.87-5,29,29,0,0,0,5.57-9A30.64,30.64,0,0,0,253,23.55,19.4,19.4,0,0,0,252.73,21.41Zm-63.59,100.8-1.46.18c-5,.63-8.86,3.34-12.12,7-1,1.14-1.68,2.59-2.67,3.76a16.1,16.1,0,0,0-3.4,6.51,9.37,9.37,0,0,1-2.31,4.47,31.63,31.63,0,0,1-3.14,2.76c-2.41,1.85-5,3.49-7.27,5.46a17.37,17.37,0,0,0-3.23,4.12c-.71,1.14-.24,1.8,1.13,1.94a6.11,6.11,0,0,0,1.81-.1c1.3-.27,2.59-.59,3.88-.94a11.07,11.07,0,0,0,6-3.54c1.9-2.29,3.87-4.51,5.8-6.77a25.5,25.5,0,0,1,15.33-8.74,36.77,36.77,0,0,0,8.34-2.5,11.6,11.6,0,0,0,4.16-2.87c1.64-1.89,1.71-3.67.09-5.53C197.13,124,193.14,122.93,189.14,122.21ZM296,266l-.11,0a8.62,8.62,0,0,0-.09-1.45,25.13,25.13,0,0,0-7.13-13.24,7.75,7.75,0,0,0-6.46-2.3c-3.69.45-6.43,3-6.69,6.14a2.29,2.29,0,0,0,1.12,2.46,4.36,4.36,0,0,1,2.16,3.8c.13,2.34.31,4.72-.73,7a15.08,15.08,0,0,0-.89,3,12.52,12.52,0,0,0-.33,5.93,4.79,4.79,0,0,0,2.93,3.47,10.76,10.76,0,0,0,14.52-7.13c.42-1.58.82-3.16,1.18-4.76C295.68,267.89,295.81,266.93,296,266ZM201.21,70.7c1.94,0,3.89.06,5.83,0a9.84,9.84,0,0,0,3-.56c2.89-1.07,5.75-2.26,8.62-3.4,2.2-.88,4.41-1.72,6.59-2.64,1.33-.57,2.63-1.24,3.91-1.92.82-.43,1.68-1,1.61-2a2.28,2.28,0,0,0-1.68-1.94l-.16-.08a33.14,33.14,0,0,0-13.11-2.58,50.26,50.26,0,0,0-11.71,1.39,37,37,0,0,0-6.64,1.82A62.32,62.32,0,0,0,186.82,65,6.85,6.85,0,0,0,185,66.78c-.9,1.43-.47,2.14,1.19,2.54A51.39,51.39,0,0,0,201.21,70.7Zm37.73,17c.78-.09,1.39-.13,2-.23,2.09-.34,4.18-.72,6.28-1,3.48-.52,7-1,10.44-1.54a21.73,21.73,0,0,0,3.68-1c1.8-.63,2.1-2,.75-3.33a10.09,10.09,0,0,0-1.88-1.44,36.19,36.19,0,0,0-15-5.26c-2.83-.3-5.68-.45-8.52-.55a25.32,25.32,0,0,0-5.78.2,65.27,65.27,0,0,0-12.31,3.84,5.87,5.87,0,0,0-2,1.48c-.87,1-.7,1.83.46,2.32,3.45,1.46,6.78,3.22,10.54,3.91,2.33.42,4.61,1.08,6.91,1.62C236,87.08,237.57,87.41,238.94,87.72Zm4.61,123.07a7.65,7.65,0,0,0-1.1-4.35,19.92,19.92,0,0,0-14-9.56,36.41,36.41,0,0,0-3.61-.49c-2.65-.23-5.3-.48-8-.58a28.63,28.63,0,0,0-5.07.26c-1.46.21-1.76,1.17-.9,2.32a13.21,13.21,0,0,0,1.44,1.64c3.32,3.2,6.58,6.47,10,9.54,4.05,3.61,8.18,7.15,13.3,9.22a8.18,8.18,0,0,0,2.78.76,3.25,3.25,0,0,0,3.29-1.77A18,18,0,0,0,243.55,210.79Zm68.31-28.18.57-.16a18.53,18.53,0,0,0,.56-2.4c.25-2.77.39-5.56.66-8.33a8.83,8.83,0,0,0-.61-4.8c-.91-1.92-1.72-3.89-2.8-5.71-2.75-4.66-5.76-9.14-9.89-12.73a12.78,12.78,0,0,0-6-3.34,3.47,3.47,0,0,0-3.57,1.28,6.64,6.64,0,0,0-1.45,5.9,18.24,18.24,0,0,0,3.26,6.64q8,10.15,16.06,20.23C309.65,180.4,310.79,181.47,311.86,182.61Zm-130.66.63c.84.15,1.53.31,2.24.38a25.58,25.58,0,0,1,8,1.7c3.11,1.35,6.2,2.75,9.31,4.12a5.51,5.51,0,0,0,1.5.61c1.69.19,3.38.36,5.07.39,5.07.09,10.14.15,15.21.11a49.89,49.89,0,0,0,6-.5,10.84,10.84,0,0,0,2.78-.82,1.85,1.85,0,0,0,.7-3.22,6.86,6.86,0,0,0-2.13-1.67,26.47,26.47,0,0,0-5.39-2.15c-4.61-1-9.26-1.85-13.92-2.62a76.53,76.53,0,0,0-18.45-1.1,19.35,19.35,0,0,0-9.17,2.61A3,3,0,0,0,181.2,183.24Zm127.88,38.15c-.13-.84-.22-1.68-.39-2.51a21.61,21.61,0,0,0-4-8.3A26.62,26.62,0,0,0,297,203c-3.7-2.24-6.72-1.06-8,3.09a11.92,11.92,0,0,0,1,9c2.06,4.18,4.26,8.29,6.41,12.43a12.55,12.55,0,0,0,3.63,4,5.28,5.28,0,0,0,3.57,1.08,2,2,0,0,0,1.68-.88A19.92,19.92,0,0,0,309.08,221.39Zm-75.27-52.66a13,13,0,0,0,2.43-.61,25.53,25.53,0,0,0,10.14-8,20.49,20.49,0,0,0,3.94-8.3c.57-2.64-.44-4.33-3-5.18a7.41,7.41,0,0,0-5.66.25c-.77.35-1.55.7-2.31,1.07-4,1.91-8.1,3.55-11.68,6.21a16,16,0,0,0-2.58,2.27,6.15,6.15,0,0,0-.63,7.43A11.73,11.73,0,0,0,233.81,168.73ZM309,151.12a12.45,12.45,0,0,0,1-2.9,66.31,66.31,0,0,0,.36-8.9,15.38,15.38,0,0,0-7-12.39,26.66,26.66,0,0,0-11.19-4.51c-2.64-.36-5,.2-6.47,2.63-1.13,1.85-1.7,3.75-.52,5.94a17.34,17.34,0,0,0,4.4,4.74,12,12,0,0,0,3.84,2.38c4.92,1.56,8.34,5,11.59,8.72C306.19,148.18,307.1,149.78,309,151.12ZM182.13,47.44a13.42,13.42,0,0,0-6.94,1.93c-3.61,1.86-7.2,3.77-10.7,5.83-1.64,1-3.22,2.16-3.62,4.31a6.86,6.86,0,0,0,4.87,7.85,5.42,5.42,0,0,0,4.25-.15c2.59-1.33,5.24-2.53,7.8-3.91,2.77-1.5,5.62-2.89,7.91-5.14a6.44,6.44,0,0,0,2.08-5.39C187.51,49.47,185.4,47.41,182.13,47.44ZM310.79,196.76c-.18-1.28-.3-2.43-.53-3.55a19.83,19.83,0,0,0-3.1-6.53c-1.92-3-3.77-6.13-6.52-8.5a20,20,0,0,0-3.69-2.61,5,5,0,0,0-5.71,1,5.41,5.41,0,0,0-.71,5.63c1.13,2.41,2.3,4.81,3.37,7.25a27.48,27.48,0,0,0,5.67,8.61,16.17,16.17,0,0,0,7,4.16,2.6,2.6,0,0,0,3.53-1.87C310.42,199.16,310.57,197.89,310.79,196.76ZM266.18,85.11l-.05.25c-.42,0-.85,0-1.27,0-4.24.23-8.22,1.53-12.21,2.84a3.9,3.9,0,0,0-1.47,1c-.74.76-.67,1.45.26,1.9a77.87,77.87,0,0,0,7.3,3.27c2.92,1,5.93,1.78,8.93,2.56a9.13,9.13,0,0,0,2.86.22c2-.13,4-.36,6-.6,3.31-.4,6.62-.85,9.93-1.28.92-.12,2-.27,2.22-1.28s-.62-1.76-1.4-2.34a24.94,24.94,0,0,0-9.78-4.7C273.75,86.19,270,85.72,266.18,85.11ZM234.32,240.52a22.68,22.68,0,0,0,2.9-1.06,3.41,3.41,0,0,0,1.8-3.84A14.76,14.76,0,0,0,234.4,227a101.09,101.09,0,0,0-10-7.79,58.6,58.6,0,0,0-6.59-3.87c-1.27-.68-2.32.08-2,1.43.86,3.58,1.28,7.31,3.58,10.42,1.17,1.6,2.11,3.37,3.3,5,1.5,2,3.11,3.88,4.74,5.76S231.37,240.3,234.32,240.52ZM287,223.1c-.18.19-.35.31-.4.46a5.24,5.24,0,0,0-.29,1.23c-.25,3.62-.44,7.24-.71,10.86a14.9,14.9,0,0,0,4.43,12.25c1.84,1.82,3.35,4,6,4.88,2.22.74,3.51-.1,4.19-1.63a14.82,14.82,0,0,0,1.26-7.81,7.19,7.19,0,0,0-2.15-4.9,26.4,26.4,0,0,1-4.76-5.92c-1.75-2.71-3.58-5.35-5.42-8A2.8,2.8,0,0,0,287,223.1Zm-30-52.38c.06-3.92-3-6.39-6.33-5.32a17.82,17.82,0,0,0-5,2.41c-2.3,1.66-4.35,3.66-6.51,5.51a6,6,0,0,0-2,3.78,13,13,0,0,0,.38,5.93,4.18,4.18,0,0,0,3.92,3.24,6.46,6.46,0,0,0,2.8-.55,24.06,24.06,0,0,0,10-7.65A15.1,15.1,0,0,0,257,170.72Zm47.43-46.88a10.55,10.55,0,0,0,.22-2.66,52.54,52.54,0,0,0-1.8-7.4,13,13,0,0,0-7.54-8,22.61,22.61,0,0,0-10-1.59,12.33,12.33,0,0,0-3.18.66c-3.12,1.05-4.28,5.62-1.93,7.94a14.82,14.82,0,0,0,8.57,4,36.63,36.63,0,0,1,4.29.74c3.19.88,5.91,2.72,8.61,4.57C302.47,122.64,303.25,123.09,304.45,123.84Zm-68.44,14c.28-2.83-1.92-3.89-4.11-3.85a5.94,5.94,0,0,0-1.62.24c-1.09.32-2.18.7-3.25,1.09-4.59,1.69-6.91,5.1-7.36,9.86-.18,1.91.2,2.35,2.06,2.67a20.4,20.4,0,0,0,9.12-.87,5.7,5.7,0,0,0,2.5-1.72A11.37,11.37,0,0,0,236,137.82Zm6.9,58.22c-.19,2.18.74,4.09,1.84,5.93a3,3,0,0,0,3.6,1.35,6.38,6.38,0,0,0,1.67-.68,13.71,13.71,0,0,0,6.22-8,9.41,9.41,0,0,0-1.14-7.84,1.72,1.72,0,0,0-2.13-.92,6.63,6.63,0,0,0-1.7.61c-1.85,1.13-3.7,2.29-5.5,3.52A6.46,6.46,0,0,0,242.91,196ZM16.59,336.12A7,7,0,0,0,11,338.48c-1.09,1.22-2.24,2.39-3.27,3.67-2.44,3-2,4.69,1.45,6.3a3.76,3.76,0,0,0,4.67-.75c.86-.84,1.62-1.8,2.41-2.72a2.81,2.81,0,0,1,3.55-1,8.84,8.84,0,0,1,1.34.57,3.59,3.59,0,0,0,4.09-.48,11.14,11.14,0,0,0,2.32-2.28c1.53-2,1-3.48-1.51-4.13-1-.26-2-.37-3-.54ZM12,353.17c-3.51-.13-5.73,1-7.21,3.28C3.71,358.11,2.91,360,2,361.72A5.89,5.89,0,0,0,2,367.14a3.25,3.25,0,0,0,2.85,1.94,3,3,0,0,0,3.07-1.53,19.52,19.52,0,0,0,1.56-3.26c.65-1.73.69-1.78,2.57-1.92,1.45-.11,2.89-.28,4.32-.53A3.58,3.58,0,0,0,19.48,359a4.39,4.39,0,0,0-2-4A16.53,16.53,0,0,0,12,353.17Zm3.88,23.26H17.7a3.51,3.51,0,0,0,3.34-2.1,6.34,6.34,0,0,0-.6-6,5.24,5.24,0,0,0-6-1.38,9.6,9.6,0,0,0-6.18,6.47,9.25,9.25,0,0,0,1.26,8.33,3,3,0,0,0,3.08,1.52,3.09,3.09,0,0,0,2.62-2.48C15.57,379.42,15.66,378,15.88,376.43Z"/><path class="cls-2" d="M181.94,410.72c0-1.6,1.18-2.5,2.29-3.31a3.59,3.59,0,0,0,1.6-2.69c1-8.76,2.86-17.42,3.19-26.26a156.21,156.21,0,0,0,.11-16.76,72.56,72.56,0,0,0-9.61-32,49.08,49.08,0,0,0-5.71-7.53c-6.1-6.81-13.46-12.1-21.26-16.73a164.62,164.62,0,0,0-31.68-14.64,161.06,161.06,0,0,0-16.38-4.17c-4.08-.92-8.21-1.6-12.33-2.28a35.05,35.05,0,0,0-12.29.58,12.34,12.34,0,0,1-7-.63c-3.24-1.27-4.57-3.77-4.76-7.07a9.71,9.71,0,0,1,4.61-8.95,20.37,20.37,0,0,1,4.69-2.4A45.66,45.66,0,0,1,91.8,263a49.81,49.81,0,0,1,8.86.79c5.37.92,10.74,1.92,16,3.18,6.31,1.5,12.56,3.27,18.82,5,8.42,2.33,16.8,4.83,25.24,7.08a20.22,20.22,0,0,0,10.8-.22,11.08,11.08,0,0,0,4.34-2.54,5.14,5.14,0,0,0,.19-7.38,13.94,13.94,0,0,0-4.83-3.51,38.85,38.85,0,0,0-9.69-3,48.91,48.91,0,0,1-12.21-4.15,142.37,142.37,0,0,1-25.81-16c-2.37-1.8-4.55-3.85-7-5.57a19.45,19.45,0,0,0-4.57-2.19c-5.25-1.9-10.55-3.64-15.79-5.57S86,225,81,223c-3.48-1.42-6.94-2.92-10.3-4.61a36,36,0,0,1-12.88-10.48,25.23,25.23,0,0,1-5.17-18.8c.42-3.43.38-6.91.58-10.36.1-1.74.29-3.47.45-5.32l9.26.57,10.71.63a1.56,1.56,0,0,0,1.56-.67c1.32-1.91,3.36-2.77,5.47-3.39A34.39,34.39,0,0,1,94,169.58c8.09.86,15.55,3.74,22.79,7.23q7.88,3.81,15.51,8.09c5.44,3,10.83,6.22,16,9.65a32.38,32.38,0,0,1,7.51,6.57c3.45,4.33,6.3,9.14,6.78,14.87.18,2.19,1.6,3.4,2.94,4.78.66.68,1.26,1.43,1.92,2.11,1.1,1.14,2.16,2.31,3.34,3.36,2.49,2.23,5,4.37,7.56,6.57.5.44.82,1.13,1.37,1.43q4.17,2.28,8.44,4.41a5.73,5.73,0,0,0,1.94.45,3.68,3.68,0,0,0,4.37-2.93,5.82,5.82,0,0,0,0-4.11,57,57,0,0,0-3.43-7c-2.26-3.59-4.72-7.07-7.26-10.48a12.5,12.5,0,0,0-7.14-5.07,11.85,11.85,0,0,0-3-.15c-1.38,0-2.77.34-4.15.3-3.76-.11-6.56-2.8-7.34-7a12.65,12.65,0,0,1,1.38-.68c6.95-2.63,13.73-2,20.32,1.17a28.12,28.12,0,0,1,9.45,7,22.09,22.09,0,0,1,5.47,13.57,50.79,50.79,0,0,1-.85,10.15,73.38,73.38,0,0,0-.95,14.87c.31,6.23,1.36,12.3,4.29,17.92a23.2,23.2,0,0,0,10.9,10.86,24.68,24.68,0,0,1,11.66,11.34,14.07,14.07,0,0,1,1.88,6.58c0,3.82-3.72,7.78-7.68,7.29a6,6,0,0,1-2.55-.8,45,45,0,0,1-4.89-3.79c-1.61-1.47-3-3.14-4.57-4.7-.33-.34-.71-.63-1.1-1-.57.8,0,1.17.37,1.62a30.05,30.05,0,0,1,4.36,7.75,16.19,16.19,0,0,1,.68,2.45c.48,2.54-.42,4.53-2.81,5.49a20.87,20.87,0,0,1-5.09,1.2,3.83,3.83,0,0,1-3.35-1.55,48.53,48.53,0,0,1-4-5.17c-1.33-2.1-2.39-4.37-3.56-6.56-.14-.26-.28-.51-.55-1a2.32,2.32,0,0,0,0,2.15c.84,3.1,1.74,6.2,2.45,9.33a9.31,9.31,0,0,1,.34,4.49,6.11,6.11,0,0,1-5.74,4.69c-4.73.25-7.54-2.72-9.1-6.73a31.87,31.87,0,0,1-2-9.2c0-.4-.15-.8-.26-1.38a2.3,2.3,0,0,0-.92,1.78c-1.35,6.43.57,12,4.53,17a23.84,23.84,0,0,0,14.25,8.85,25.07,25.07,0,0,0,7.23.49c2.91-.25,5-2,7.09-3.8,3.57-3.12,7.1-6.27,10.77-9.26a16,16,0,0,1,7.75-3.44,9.14,9.14,0,0,1,5.31.77,3.6,3.6,0,0,1,2.12,3.35,7.17,7.17,0,0,1-1.51,4.77c-1.8,2.37-3.62,4.74-5.64,6.91a94.79,94.79,0,0,1-11.76,10.89c-1.3,1-2.65,1.92-4,2.87a14.91,14.91,0,0,0-5,5.23,6.64,6.64,0,0,0-.5,4.09,2.82,2.82,0,0,0,2.83,2.12,5.41,5.41,0,0,0,3.84-1.43c1.86-1.65,3.61-3.41,5.36-5.18,2-2,3.92-4.15,5.93-6.17a7.25,7.25,0,0,1,1.95-1.31c1.7-.81,2.92-.17,3.07,1.73a18.73,18.73,0,0,1-.18,4.36c-.48,2.93-1.1,5.84-1.7,8.75-.55,2.65-2.33,4.48-4.26,6.19q-3.19,2.83-6.4,5.66a3.82,3.82,0,0,1-1.32.95c-1.58.4-1.94,1.66-2.19,2.95-.4,2.08-.73,4.18-1,6.27-.73,5-1.39,10.09-2.15,15.13q-.89,5.84-2,11.64a26.33,26.33,0,0,1-1.25,3.59,2.35,2.35,0,0,1-2.13,1.72,18.86,18.86,0,0,1-2.89.23c-2.35-.17-4,.53-4.62,3ZM90.79,271.45a28.52,28.52,0,0,0-8.19.86,7.26,7.26,0,0,0-2.7,1.4c-1.21,1-.9,2.12.61,2.49a6,6,0,0,0,2,.13,21.15,21.15,0,0,0,3.05-.53A43.19,43.19,0,0,1,98,274.49,80.27,80.27,0,0,1,117.33,278c7.17,2.1,14.28,4.4,21.42,6.6,6.39,2,12.8,3.89,19.46,4.73,5.63.72,11.19.42,16.44-2,6.53-3,10.94-7.79,12.44-15,.44-2.08.66-4.2.92-6.31a17.35,17.35,0,0,0-1.83-10.26,18.5,18.5,0,0,0-8-7.78c-2.46-1.31-5-2.44-7.6-3.54-5.75-2.47-11.54-4.84-17.28-7.32a23.49,23.49,0,0,1-8.7-7c-2.78-3.38-5.66-6.7-8.71-9.83a25.71,25.71,0,0,0-12.06-7.24c-3.11-.79-6.32-1.21-9.49-1.73a90.08,90.08,0,0,1-23.59-6.79c-4.3-2-8.52-4.18-11.13-8.5A5.12,5.12,0,0,0,76,193.88c-2.28-.38-3.49,1-3,3.24a7.46,7.46,0,0,0,1.94,3.46,24.86,24.86,0,0,0,6.33,4.88,70.48,70.48,0,0,0,20.5,7.37c4.17.8,8.41,1.25,12.62,1.87a36,36,0,0,1,18.22,8.17A76.14,76.14,0,0,1,143,234.11a61.29,61.29,0,0,0,5.07,5.72,21.92,21.92,0,0,0,11.36,5.79c1.49.29,3,.57,4.48.84a34.85,34.85,0,0,1,16.94,8.42,11.09,11.09,0,0,1,3.41,4.87,21.13,21.13,0,0,1-1.48,16.78,16.46,16.46,0,0,1-6.32,6.42c-5.63,3.55-11.65,5.19-18.27,3.56-7.67-1.89-15.34-3.78-23-5.83-7.1-1.9-14.12-4.12-21.23-6A90.16,90.16,0,0,0,90.79,271.45ZM98,186.28h.09c-.15-1.2-.23-2.42-.47-3.6-.87-4.25-2.84-7.76-7-9.54a9,9,0,0,0-8.54.34c-2,1.16-2.46,4.22-1,5.68a12.31,12.31,0,0,1,1.23,1.55q3,4.05,5.87,8.11a3.46,3.46,0,0,0,2.2,1.5,24,24,0,0,0,3.21.56c2.83.13,4.67-.77,4.44-4.22Zm4.74,1.71a9.9,9.9,0,0,0,0,2.18,4.1,4.1,0,0,0,1,2,6.57,6.57,0,0,0,4.51,1.66,3.41,3.41,0,0,0,3.39-2.28,7.61,7.61,0,0,0,.62-2.46,43.33,43.33,0,0,0,0-5.81c-.42-4.85-5.41-9.07-10.34-8.88-2.14.08-2.83,1.17-1.94,3.1.23.5.49,1,.72,1.47A20,20,0,0,1,102.75,188Zm44.32,10.74a3.09,3.09,0,0,0-.13.77,37.4,37.4,0,0,1-.93,11.74,2.18,2.18,0,0,0,.2,1.37,8.85,8.85,0,0,0,7.12,5c3,.31,4.57-.93,4.63-3.95.11-6-2.74-10.67-7.26-14.39A3.74,3.74,0,0,0,147.07,198.73Zm-19.5-4.87a37.54,37.54,0,0,0-.55-4.31,9.16,9.16,0,0,0-5.59-6.71c-2.87-1.14-4.79.23-4.83,3.29a25.27,25.27,0,0,1-.95,7.73,2.85,2.85,0,0,0,.76,3,10.57,10.57,0,0,0,7.27,3.3,2.72,2.72,0,0,0,3.15-2.18A34.67,34.67,0,0,0,127.57,193.86ZM142.84,201l-.19,0c0-.48,0-1,0-1.46,0-3.79-2-6.39-4.95-8.43a4,4,0,0,0-4.33-.21c-1.39.73-1.18,2.09-1.19,3.38,0,2.48,0,5-.28,7.45a3.07,3.07,0,0,0,1.72,3.45,48.12,48.12,0,0,0,5,2.22c1.85.68,3.09.05,3.58-1.89A41.84,41.84,0,0,0,142.84,201Z"/><path class="cls-2" d="M393.66,410.72c.78-3.25,1.63-6.48,2.33-9.75,1.53-7.19,3-14.39,4.45-21.62.57-2.91.82-5.89,1.28-8.83a17.58,17.58,0,0,1,.78-3.18c1.13-3.14,1-6.46,1.46-9.7a397,397,0,0,1,7.65-41.76,84.13,84.13,0,0,1,7.1-19.67A46,46,0,0,1,430,281.82c6.44-5.21,13.61-6.43,21.37-3.42a11.62,11.62,0,0,1,7.53,9.15c.27,1.42.33,2.88.5,4.32a5.47,5.47,0,0,0,.16.9c.19.73.11,1.83,1.11,1.8.52,0,1.22-.79,1.49-1.38a22.21,22.21,0,0,0,1.91-10.48c-.2-3.44-2.12-5.91-4.8-7.8a26.19,26.19,0,0,0-18.68-4.59c-7.48.89-13.69,4.42-19.06,9.53-6.52,6.2-10.5,13.9-13.28,22.34a279.44,279.44,0,0,0-10.14,41c-1.52,9.05-3.27,18.06-4.66,27.12-.61,4-.59,8.13-.85,12.19a76.78,76.78,0,0,1-4,20.9,14.89,14.89,0,0,1-1.68,3.42c-1,1.51-2.39,1.4-3-.3a23,23,0,0,1-1.17-5.5,66.48,66.48,0,0,1,.85-14.36c.76-5.61,1.52-11.21,2.37-16.8.46-3.06,1.13-6.08,1.63-9.12,1.57-9.46,3-19,4.7-28.38,1.52-8.24,3.07-16.48,5.32-24.56,2.47-8.88,5.63-17.46,10.61-25.28,4-6.28,8.76-11.81,15.15-15.74a28.65,28.65,0,0,1,6.67-3.32c3.1-.91,6.05-2.35,9.42-2.54,3.2-.17,6.38-.67,9.6-.52,4.61.2,9,1,13,3.58a12.94,12.94,0,0,1,5.6,8.19c1.11,4.29.69,8.56-.08,12.82a67.53,67.53,0,0,1-2.87,11.1,19.82,19.82,0,0,1-3.78,6.81c-1.63,1.8-3.59,2.65-6,1.74a4.3,4.3,0,0,1-3.18-3.82c-.18-2.22-.13-4.47-.3-6.7a3.79,3.79,0,0,0-2.6-3.74c-.69,2.3-1.28,4.61-3.35,6s-4.39.94-6.86,0c.56,1.19,1,2,1.37,2.91a4.61,4.61,0,0,1-2.21,6,16.69,16.69,0,0,1-6.08,1.76c-.4.05-.79.13-1.51.25.55.51.86.84,1.21,1.12,2.68,2.1,3.13,4.62,1.23,7.5a21.13,21.13,0,0,1-6.1,5.66,18.37,18.37,0,0,0-3.08,2.35c.62-.08,1.24-.14,1.85-.26a43.15,43.15,0,0,1,4.26-.91c2.14-.22,2.73.66,1.78,2.58q-3.09,6.21-6.27,12.36c-1.14,2.21-2.35,4.39-3.51,6.59a7.08,7.08,0,0,0-.33,1.32,9.07,9.07,0,0,0,1.38-.92c2.36-2.54,4.69-5.1,7-7.66.57-.63,1.1-1.29,1.58-1.85A1.35,1.35,0,0,1,432.3,337a18,18,0,0,1-.92,3A72.87,72.87,0,0,1,425,351.2c-1.35,2.09-2.8,4.12-4.19,6.19a5,5,0,0,0-.79,1.8,26,26,0,0,0,6.61-5.4c2-2.12,3.91-4.3,6-6.62a13.82,13.82,0,0,1,0,2.59,58.9,58.9,0,0,1-6.18,15.71,9.19,9.19,0,0,1-1.91,2.18,12.29,12.29,0,0,0-3.35,5.35,32.13,32.13,0,0,1-4.3,9,1.46,1.46,0,0,0-.27,1,5.77,5.77,0,0,0,.82-.74q2.75-3.75,5.45-7.52c1.11-1.52,2.16-3.09,3.34-4.55a13.73,13.73,0,0,1,2.05-1.72,10.17,10.17,0,0,0,1.37-1.15c1.1-1.3,2.13-2.66,3.19-4,.32-.41.67-.8,1.19-1.41a5.09,5.09,0,0,1-.27,3.25c-.61,1.38-1.36,2.7-2.06,4.05a9.68,9.68,0,0,0-1.08,2.06c-1.36,5.87-4.45,10.87-7.78,15.76q-5.34,7.83-10.67,15.67c-.47.69-.85,1.44-1.33,2.25.91.37,1.22-.22,1.58-.64,2.49-2.91,5-5.77,7.43-8.75,4.4-5.5,8.7-11.08,13.05-16.62.15-.19.32-.35.57-.63a4.71,4.71,0,0,1,.17,3.58,36.63,36.63,0,0,1-3.62,8.93c-3.86,6.94-8.77,13.12-13.86,19.17-.2.24-.38.48-.56.72Z"/><path class="cls-2" d="M103.09,410.72c-1.14-.36-2.3-.66-3.41-1.1s-2.44-.74-2.58-2.05,1-2,1.9-2.5c2.66-1.58,5.41-3,8.13-4.47.75-.4,1.55-.72,2.26-1.17a1.4,1.4,0,0,0-.15-2.65,6,6,0,0,0-4.27,0,26.57,26.57,0,0,0-7.15,3.56,24.37,24.37,0,0,1-6.45,3.33,8.1,8.1,0,0,1-5,.13c-2.63-.93-5.27-1.89-7.24-4-1.17-1.28-1.19-2.33.17-3.4a15.15,15.15,0,0,1,3.25-2c2.37-1.08,4.82-2,7.22-3a9,9,0,0,0,1.84-1.15,1,1,0,0,0,.33-1.43,1.57,1.57,0,0,0-1.17-.59A9.76,9.76,0,0,0,88,389c-3.27,1.61-6.56,3.18-9.71,5-3.55,2.05-7.44,2.92-11.34,3.79A3.25,3.25,0,0,1,63.17,396a2.94,2.94,0,0,1,1.19-3.83,32.08,32.08,0,0,1,4.45-2.46c2-.94,4.07-1.63,6-2.66a25.29,25.29,0,0,0,3.78-2.8c.27-.22.35-.68.59-1.18-1.88-.15-3.55-.24-5.22-.42A18.93,18.93,0,0,1,62,377.1c-2.84-2.89-6.11-5.35-9.2-8A63.53,63.53,0,0,0,42.69,362a16.14,16.14,0,0,1-2-1.77,13,13,0,0,0-2.46-1.81,2.35,2.35,0,0,0-3.44,1.35c-1.26,3.2-1.15,5.49,2.12,7.29a11.36,11.36,0,0,1,5.72,7.19,26.82,26.82,0,0,1,.5,3.62c1.38.12,2.81.21,4.23.35,2.59.26,5.21.39,7.76.86,3.6.65,5.1,2.35,5.61,6a16.79,16.79,0,0,1,.06,3.4c-.16,2.4-2.18,3.61-4.23,3.7a13.15,13.15,0,0,1-8.69-2.66c-1.22-.91-2.37-1.91-3.55-2.85s-2.37-1.9-3.58-2.8A12.64,12.64,0,0,0,31,381.7c-1.32.18-2.64.32-4,.46a3.56,3.56,0,0,1-.73,0c-3.15-.24-4-1.43-3-4.43.44-1.38,1-2.73,1.49-4.11a13.6,13.6,0,0,0,.7-6.61,6.94,6.94,0,0,0-2.09-4.12,8,8,0,0,1-2.68-5.39,8.32,8.32,0,0,1,2.3-6.15c.8-.91,1.72-1.71,2.58-2.57,1.41-1.42,2.85-2.82,4.21-4.29a5.75,5.75,0,0,0,1.45-3.08c.28-1.71,1-2.13,2.52-1.37a22.13,22.13,0,0,1,3.34,2.2,6.56,6.56,0,0,0,5.31,1.32,4.5,4.5,0,0,0,4-3.68c.05-.18.06-.36.1-.54.42-1.91,1.18-2.7,2.62-2.74,2-.05,3.21.73,3.71,2.55s.7,3.45,1.15,5.15a29.14,29.14,0,0,0,6.2,11,72.27,72.27,0,0,0,5.25,5.8,79.83,79.83,0,0,0,6.39,5.36A53.61,53.61,0,0,0,77,370a38,38,0,0,0,10.86,4.14,117.42,117.42,0,0,1,17,5.93c4.37,1.83,8.73,3.71,13.12,5.48s8.55,3.48,12.92,5a38.2,38.2,0,0,0,7.32,1.41,52.26,52.26,0,0,0,13.63.35,9.57,9.57,0,0,0,6.43-3.4,57,57,0,0,0,5.94-8.28c2.29-3.94,4.77-7.78,7.16-11.66.16-.25.32-.52.5-.76a5.71,5.71,0,0,1,4.69-2.63c1.64,0,3.27-.24,4.91-.26a15,15,0,0,1,2.51.35,6,6,0,0,1-.41,3.68q-1.61,4.46-3.36,8.86a86.62,86.62,0,0,0-5,16.2c-.44,2.32-.59,4.7-.94,7a29.22,29.22,0,0,1-2.94,9.35H113c1.25-.59,2.52-1.16,3.75-1.79a34.9,34.9,0,0,0,4.12-2.25,2.07,2.07,0,0,0,.5-3.18c-.65-1-1.48-1.15-2.87-.5-.93.44-1.82,1-2.71,1.49-3.6,2.09-6.91,4.69-10.82,6.23Z"/><path class="cls-2" d="M216.25,410.72a82,82,0,0,0,13.25-23.54,88.31,88.31,0,0,0,4.38-15.2c.54-3,1.55-5.88,2.1-8.85.85-4.53,1.43-9.11,2.22-13.65,2.05-11.76,4.71-23.34,10-34.16,2.91-6,6.53-11.52,11.68-15.89a26,26,0,0,1,19-6.48,33.15,33.15,0,0,1,5.89,1.08c2.05.5,4.08,1.15,6.11,1.76a33.28,33.28,0,0,1,13.38,7.87c6.67,6.34,10.71,14.18,13.11,23A83.26,83.26,0,0,1,320,343.29c.23,3.38.7,6.75.92,10.13.23,3.58.39,7.16.38,10.74,0,2.54-.4,5.07-.53,7.61-.05.83.27,1.67.27,2.5a53.72,53.72,0,0,1-.2,5.82,28.92,28.92,0,0,0,1.33,13.48,14.61,14.61,0,0,0,2,3.64,5.88,5.88,0,0,0,6,2.29,17.16,17.16,0,0,0,6.54-2.08,56.52,56.52,0,0,1,6.08-2.9c3-1.44,5.66-.61,8.08,1.42l.85.73c1.9-.8,3.66-1.61,5.47-2.29a10.1,10.1,0,0,1,5-.52c3.84.51,6.73,2.52,9.39,5.11a22,22,0,0,1,6.31,10.49,7.48,7.48,0,0,1,.09,1.26H320.29c-.75-.61-1.48-1.24-2.24-1.84-4.24-3.36-7-7.51-7.29-13.1-.13-2.55-.51-5.08-.55-7.63-.11-7.23-.17-14.47-.14-21.71,0-9-.46-18-2.57-26.81A51.53,51.53,0,0,0,299,320.42,35.82,35.82,0,0,0,285.29,309c-5.75-2.67-11.58-3.21-17.38-.15-3.11,1.65-5.89,3.79-7.44,7a76.2,76.2,0,0,0-6.28,18.42c-.73,3.81-1.4,7.65-2.13,11.47-1.27,6.62-2.43,13.27-4.74,19.66a21.35,21.35,0,0,0-1.08,4.23,117.41,117.41,0,0,1-4.75,19.47c-2.4,7.63-5.25,15-9.91,21.62Z"/><path class="cls-2" d="M258.6,410.72H237.79a10.28,10.28,0,0,1,.74-1.44c4.64-6.59,7.74-13.92,10.25-21.5a262.54,262.54,0,0,0,7.68-31.14c1.82-9.13,3.51-18.27,5.43-27.37a81.88,81.88,0,0,1,2.88-9.79,9.42,9.42,0,0,1,4.56-5.69,10.68,10.68,0,0,1,6.77-.71,28.26,28.26,0,0,1,9.59,3.85c4,2.28,7.81,4.77,10.73,8.36a25.86,25.86,0,0,1,2.89,4.61,4,4,0,0,1-.12,3.7c-.52,1-1.06,1.3-2.05.85a11.48,11.48,0,0,1-2.31-1.42c-1.16-.89-2.23-1.89-3.38-2.79-.55-.44-1.15-.93-1.94-.52-.33,1.53-.29,2.16.81,3.13a32,32,0,0,0,4.09,3c1.64,1,3.35,2,5.09,2.84a4.91,4.91,0,0,1,2.74,5.28,15.61,15.61,0,0,1-.53,3,3.24,3.24,0,0,1-3.06,2.69A3.6,3.6,0,0,1,295,347.5a27,27,0,0,1-1-3.12c-.34-1.1-.56-2.25-1-3.32a2.48,2.48,0,0,0-2.91-1.67,3.34,3.34,0,0,0-3.06,2.48,9.32,9.32,0,0,0-.16,4.86c.36,1.61.78,3.19,1.14,4.79a19.81,19.81,0,0,1,.46,8,7.91,7.91,0,0,1-1.24,3,2,2,0,0,1-3.17.17,5.86,5.86,0,0,1-1.4-1.89c-1.06-2.62-3.37-3.34-5.76-3.89a1.93,1.93,0,0,0-2.39,1.19c-.48,1.17-.25,1.78.86,2.61,2.33,1.75,4.67,3.49,6.94,5.32a7.66,7.66,0,0,1,3,5.77c.07,1.39.2,2.79.38,4.18a25.62,25.62,0,0,1-1.07,10.62,7.94,7.94,0,0,1-1.47,2.69c-.71.88-1.6.74-2.27-.19a4.09,4.09,0,0,1-.49-1c-.6-1.72-1.13-3.46-1.76-5.17s-1.35-3.65-2.2-5.38a5.71,5.71,0,0,0-1.86-1.93c-.81-.57-1.46-.35-2,.47a2.81,2.81,0,0,0-.1,3.23c1.54,2.83,3.06,5.67,4.4,8.59a18,18,0,0,1,1,13.16,9.68,9.68,0,0,1-1.47,3.09,3.15,3.15,0,0,1-5.38-.08,19.12,19.12,0,0,1-2-3.67c-.77-1.78-1.32-3.66-2.1-5.44a4.67,4.67,0,0,0-1.51-2,1.5,1.5,0,0,0-2.44,1.31,6.49,6.49,0,0,0,.46,2.66c.7,1.68,1.58,3.28,2.41,4.9,1.19,2.32,2.44,4.62,3.59,7a8.53,8.53,0,0,1,.44,1.92H263C261.27,408.8,260,408.8,258.6,410.72Z"/><path class="cls-2" d="M204.57,4.69a9,9,0,0,0,1.33.44A10.69,10.69,0,0,1,213,9.39c1.92,2.55,2.49,5.42,3.29,8.32a41.81,41.81,0,0,1,1.19,9.82,23.83,23.83,0,0,1-.38,4.84,31.26,31.26,0,0,1-2.52,8.11,22.52,22.52,0,0,1-4.17,6.46,9.87,9.87,0,0,1-9,3.08,14.44,14.44,0,0,1-4-.92c-2.7-1.34-3.73-3.59-3.23-6.67A18.87,18.87,0,0,1,195.64,38c1.34-3,3.72-5.24,5.27-8a14.43,14.43,0,0,0,1.94-8.13,23.77,23.77,0,0,0-2.25-9.08,27.41,27.41,0,0,1-1.28-3.41A3.59,3.59,0,0,1,201,5.43c.46-.26.95-.49,1.42-.74Z"/><path class="cls-2" d="M282.32,410.72a8,8,0,0,1,.55-1.49,54.23,54.23,0,0,0,7.41-20,81.88,81.88,0,0,0,1.14-16.33c-.1-2.78-.14-5.57-.22-8.36a9.31,9.31,0,0,1,1.7-5.48c1.14-1.72,2.49-2.14,4.19-1,2.5,1.71,4.86,3.62,7.22,5.52a2.24,2.24,0,0,1,.68,1.6c-.08,3.2.2,6.46-.85,9.57a10.69,10.69,0,0,1-1,2.14,3.27,3.27,0,0,1-3.22,1.66,6.07,6.07,0,0,0-3.67.8c-2.25,1.35-2.55,4.05-.58,5.6,2.24,1.76,4.38,3.66,6.45,5.62a10.43,10.43,0,0,1,2.08,2.95c1.22,2.48-.07,4.56-2.79,4.62-2,0-3.88.12-5.42,1.64s-1.32,2.56.74,3.08c1.76.45,3.58.62,5.38.9,3.5.54,7,3.73,7.59,7Z"/><path class="cls-2" d="M418.84,410.72c.86-.91,1.66-1.9,2.6-2.72,2.47-2.15,5-4.23,7.73-6.51-1.67,3.19-3.26,6.21-4.85,9.23Z"/><path class="cls-2" d="M354.71,360.61c-.42-7.51-1-15.25-2.17-22.94a168.9,168.9,0,0,0-4.48-21,102.6,102.6,0,0,0-9.1-22,185.32,185.32,0,0,0-10.52-16.62,88.33,88.33,0,0,0-11.81-13.38c-2.74-2.57-5.56-5.07-8.37-7.58-3.58-3.2-4-10.08,1-13.21a11.44,11.44,0,0,1,8.9-1.41c9.32,2.05,17.27,6.66,24.38,12.87,7.71,6.74,13.45,15,18.18,24,3.61,6.85,6.08,14.15,8.41,21.49a184.92,184.92,0,0,1,4.89,19.41,141.78,141.78,0,0,1,2.16,17.32,74.69,74.69,0,0,1-2.11,23.27,13.1,13.1,0,0,1-1.47,3.9,9.23,9.23,0,0,1-2.74,2.57,39.27,39.27,0,0,1-4.63,2.54,7.35,7.35,0,0,1-6.36.09,7.24,7.24,0,0,1-4.2-6.67C354.73,362.44,354.71,361.65,354.71,360.61Z"/><path class="cls-2" d="M168.8,73.36q54.13.14,91.78,39.07c2,2.1,4,4.22,6.08,6.26a54.63,54.63,0,0,1,9.79,13.76,73.23,73.23,0,0,1,7.23,22.25,119.11,119.11,0,0,1,1.59,16.1c.1,3.16.27,6.32.21,9.47-.07,3.7-.32,7.39-.56,11.08q-.36,5.27-.86,10.52c-.53,5.74-1.37,11.43-2.44,17.09a113.34,113.34,0,0,1-5.16,18.77c-2.09,5.55-4.78,10.78-9.14,15a13.38,13.38,0,0,1-6.75,3.75,8.26,8.26,0,0,1-2.71.13c-2-.29-2.78-1.51-2.32-3.5a33.35,33.35,0,0,1,3.78-8.47c.86-1.53,1.74-3.06,2.7-4.55,3-4.66,4.42-10,6.11-15.16a155.75,155.75,0,0,0,6.08-26.6c.68-4.92,1-9.9,1.3-14.87.23-3.57.21-7.16.26-10.75a82.66,82.66,0,0,0-1.19-13.22,64,64,0,0,0-3.39-12.76,52.76,52.76,0,0,0-5.65-11.29c-1.68-2.5-3.23-5.09-4.91-7.58a21.3,21.3,0,0,0-2.34-2.77c-2.38-2.48-4.75-5-7.23-7.35a32.1,32.1,0,0,0-4.76-3.89,161.31,161.31,0,0,0-81.69-25.57c-2.66-.09-5.34-.09-8-.35a15,15,0,0,1-4.18-1.14,5.46,5.46,0,0,1-3.22-5.9A7.7,7.7,0,0,1,155.54,74c1.93-.22,3.85-.55,5.78-.63C163.81,73.28,166.31,73.36,168.8,73.36Z"/><path class="cls-2" d="M63.25,239.16a46.82,46.82,0,0,0,1.34,5.4,5.7,5.7,0,0,0,10,1.37A34.18,34.18,0,0,0,77,241.86a3.11,3.11,0,0,1,.93-1.2,5.37,5.37,0,0,1,.18,1.1c0,1.21-.24,2.42-.22,3.63a12.49,12.49,0,0,0,.41,3.23,4.71,4.71,0,0,0,7.72,1.8c1.54-1.6,2.17-3.63,2.91-5.62A14,14,0,0,1,90,242.32a11,11,0,0,1,.16,3.12,32.25,32.25,0,0,0,.1,4.51c.29,2.24,1.24,4.06,3.75,4.57,3.47.7,5.51-.85,6.55-2.73s1.8-4,2.7-5.95c.19-.4.44-.78.66-1.16l.37.07a12.34,12.34,0,0,1,.12,1.34c-.09,2-.3,4-.29,6,0,3.44,2.52,5.49,5.92,5a5,5,0,0,0,3.55-2.89c.89-1.63,1.5-3.42,2.31-5.32,2.17.8,4.45,1.6,6.7,2.49,8.92,3.52,17.83,7.1,26.75,10.61,3.22,1.27,6.46,2.53,9.74,3.61,2.24.74,4.58,1.18,6.88,1.74a18.56,18.56,0,0,1,5.71,2.3,3.47,3.47,0,0,1-.44,6.08,10.47,10.47,0,0,1-7.45.74c-3.28-.84-6.57-1.73-9.78-2.83q-14-4.8-28.27-9a156.09,156.09,0,0,0-20.88-4.86,93.73,93.73,0,0,0-19.8-.87c-7.7.47-15,2.58-22.26,5.09-2.87,1-5.79,1.8-8.7,2.67-5.88,1.77-11.46,4.34-17.17,6.55-4.12,1.61-8.3,3.1-12.51,4.49a11.25,11.25,0,0,1-12.55-3.88,7.82,7.82,0,0,1-1.52-4.59,15.76,15.76,0,0,1,2.07-8A41.58,41.58,0,0,1,23.72,248a46.13,46.13,0,0,1,9-4.86A55.93,55.93,0,0,1,45.28,239a34.11,34.11,0,0,1,8.32-.53c2.6.16,5.21.24,7.81.38A16.46,16.46,0,0,1,63.25,239.16Z"/><path class="cls-2" d="M406.45,170.56c-.1,5.54-2.78,9.12-8.4,10.65a49.72,49.72,0,0,1-8.44,1.29c-6.14.56-12.19-.3-18.25-1.35a110.87,110.87,0,0,0-15.54-1.68c-2.61-.07-5.23-.32-7.82-.2-4.66.22-9.37.36-13.77,2.13-2.19.87-4.18,2.21-6.33,3.17a26.36,26.36,0,0,1-4.81,1.6c-1.8.41-2.65-.34-2.76-2.13a11.87,11.87,0,0,1,0-1.46c.15-2.89.28-5.79.48-8.68.38-5.47,2.5-10,7-13.32a44.84,44.84,0,0,1,15.36-7.3,43.06,43.06,0,0,1,15-1.12c2.53.25,5.09.27,7.63.39a101,101,0,0,1,17.41,2.26c5.15,1.16,10.25,2.53,14.83,5.29a21.64,21.64,0,0,1,7.23,6.56C406.44,168.42,406.45,168.41,406.45,170.56Z"/><path class="cls-2" d="M247.46,254.77a15.31,15.31,0,0,0-4.17-7.46c-1.13-1.14-1-2.41,0-3.95,1.86-2.78,3.78-5.51,5.52-8.36a80.62,80.62,0,0,0,8.66-19.4,157.06,157.06,0,0,0,5.35-22.1c.51-3.48.73-7,1-10.51.14-1.69.21-3.39.22-5.09a74.76,74.76,0,0,0-2.84-21,53.86,53.86,0,0,0-6.39-14.31,104.5,104.5,0,0,0-8.59-11.95c-2.67-3.13-5.52-6.11-9.34-7.91a2.55,2.55,0,0,0-.67-.27,16.08,16.08,0,0,0-8.62.54c-2.38.89-3.86,2.85-5,5.09-2.14,4.29-4.18,8.64-6.45,12.86a27.41,27.41,0,0,1-6.79,8.5A12.73,12.73,0,0,1,197.29,152a40.2,40.2,0,0,0-5.88-1.15A15.27,15.27,0,0,0,188,151a3.59,3.59,0,0,0-3.52,3.3,3.46,3.46,0,0,1-3.14,2.91,48.13,48.13,0,0,1-6.69.09c-.85,0-1-.66-1.09-1.41-.17-3.09,1.27-5.36,3.63-7.16a28,28,0,0,1,9.86-4.54c3.28-.88,6.61-1.62,9.79-2.77a24.86,24.86,0,0,0,11.88-9,61.49,61.49,0,0,0,4.85-8.47,26.94,26.94,0,0,1,4.5-7,20.29,20.29,0,0,0,1.55-1.79c2.85-3.81,6.77-4.9,11.3-4.46a12.91,12.91,0,0,1,8.5,4.11,11.66,11.66,0,0,0,3.63,2.31,20.6,20.6,0,0,1,6.17,4.43,92.8,92.8,0,0,1,6.38,6.94,80.7,80.7,0,0,1,10,16.89,65.21,65.21,0,0,1,5.84,22,108.68,108.68,0,0,1-.35,19.26c-.64,6.4-1.42,12.78-2.58,19.11A130,130,0,0,1,263,226.38a106.49,106.49,0,0,1-12.26,24.34c-.82,1.2-1.75,2.34-2.63,3.49A4.94,4.94,0,0,1,247.46,254.77Z"/><path class="cls-2" d="M200.76,246.64l.87-11.25c.25-3.33.63-6.65.72-10,.3-10-3.78-17.91-12.22-23.34A33.47,33.47,0,0,0,174.91,197a31.1,31.1,0,0,0-12.36,1.35,9.76,9.76,0,0,1-1.58.44,3.64,3.64,0,0,1-3.66-1.07c-1.34-1.57-2.7-3.11-4-4.74a1.53,1.53,0,0,1,.68-2.43,12.41,12.41,0,0,1,2.72-1c5.66-1.43,11.34-2.7,17.25-2.19a49.8,49.8,0,0,1,11.71,2.5,46.69,46.69,0,0,1,14.59,7.71c6.06,4.89,10.18,11,11.67,18.75a76.06,76.06,0,0,1,1.06,9.38c.26,4-.35,7.85-.66,11.76-.35,4.29-1,8.58-.23,12.88A22.32,22.32,0,0,0,219.22,263a5.81,5.81,0,0,0,4.26,1.79,2.85,2.85,0,0,0,3-2.76,11.11,11.11,0,0,0-1.62-7.14c-.36-.64-.78-1.24-1.18-1.85a5.54,5.54,0,0,1-.07-6.17,7,7,0,0,1,8.5-3,17.42,17.42,0,0,1,9.42,8.91c3,6.21,2.38,12.41-.85,18.32a11.32,11.32,0,0,1-8.41,6.08,58.75,58.75,0,0,1-6.82.92,18.15,18.15,0,0,1-10.64-3.2A30.93,30.93,0,0,1,203.76,263a28.46,28.46,0,0,1-2.69-11.25c-.11-1.69,0-3.4,0-5.1Z"/><path class="cls-2" d="M318.56,148.83c0-3.2.17-6.41,0-9.6-.21-3-.78-6-1.27-9-.2-1.25-.62-2.46-.89-3.71a10.36,10.36,0,0,1,.61-6.23,7,7,0,0,1,2.76-3.23c2.53-1.53,4.94-3.25,7.5-4.72s5.13-2.75,7.76-4c3.65-1.67,7.31-3.32,11.05-4.77a61.86,61.86,0,0,1,13.19-4,33.55,33.55,0,0,1,13.36.24A18.53,18.53,0,0,1,383,106.47a54.27,54.27,0,0,1,5.3,9,6.51,6.51,0,0,1,.51,4.08,2.83,2.83,0,0,1-1.15,1.67,9.36,9.36,0,0,1-5.06,1.63,76.43,76.43,0,0,0-7.67.81c-3.58.47-7.2.77-10.72,1.54a83.72,83.72,0,0,0-23.88,8.93,57.8,57.8,0,0,0-12.12,9.23,10.17,10.17,0,0,0-1.71,3c-1,2.19-1.94,4.44-3,6.64a6.57,6.57,0,0,1-1.13,1.64,2.12,2.12,0,0,1-3.81-1.38v-4.36Z"/><path class="cls-2" d="M144.09,389.16c-6.88.23-13.39-1.5-19.66-4.11-5-2.1-9.94-4.55-14.94-6.77A138.48,138.48,0,0,0,86.74,370a26.27,26.27,0,0,1-6-2.54,59.5,59.5,0,0,1-11.37-7.86A49.58,49.58,0,0,1,58.94,347,25.86,25.86,0,0,1,56,337.51a6.39,6.39,0,0,0-8.45-5.35,4.34,4.34,0,0,0-2.8,2.42c-.25.55-.47,1.12-.74,1.66a4.44,4.44,0,0,1-4.6,2.82,5.19,5.19,0,0,1-4.54-3.89,7.19,7.19,0,0,1,2-7.19,21.66,21.66,0,0,1,6.24-4.36,39.19,39.19,0,0,1,10-3.94c4.4-.88,8.15.17,10.77,3.94,2,2.82,4.43,5.35,5.59,8.68,1.21,3.5,2.25,7.06,3.44,10.57,1.24,3.68,2.58,7.32,3.88,11A9.45,9.45,0,0,0,82,359.6a67.77,67.77,0,0,0,7.35,3.16,65.8,65.8,0,0,0,8.19,1.58c1.55.25,3.13.33,4.7.52,3.2.38,6,1.83,8.8,3.33a52.62,52.62,0,0,1,11.35,8.2,14.71,14.71,0,0,0,9.54,4,41.84,41.84,0,0,0,16.53-2.19,11.29,11.29,0,0,0,5.47-3.78c1.13-1.43,2.2-2.91,3.25-4.4a25.9,25.9,0,0,1,3.69-4.44,33.6,33.6,0,0,0,4.22-5.42c2.06-2.86,4-5.83,6.11-8.63a44.68,44.68,0,0,1,4.11-4.38,6.52,6.52,0,0,1,1.49-1c1.93-1.09,3.39-.76,4.47,1.13a4.77,4.77,0,0,1,.74,4,31.16,31.16,0,0,1-1.69,4.6c-1.32,2.51-2.34,5.24-4.42,7.28a6,6,0,0,1-2,1.15,8.48,8.48,0,0,1-1.95.43,9.06,9.06,0,0,0-6.73,4.49c-1.81,3.1-3.36,6.34-5.17,9.44a61.87,61.87,0,0,1-4.51,6.82,9.79,9.79,0,0,1-7.62,3.75C146.64,389.2,145.36,389.16,144.09,389.16Z"/><path class="cls-2" d="M351.27,186.89c10-.07,18.68,1,27.06,3.77a48.62,48.62,0,0,1,14.93,7.83,27.94,27.94,0,0,1,8.91,12c.75,1.92,1.27,4,.29,6.18a6.9,6.9,0,0,1-5.6,4.37,6.52,6.52,0,0,1-2.47-.42,30.3,30.3,0,0,1-7.62-3.84A51.17,51.17,0,0,0,374,211.16a107.73,107.73,0,0,0-16.36-3.38,69.61,69.61,0,0,0-7.07-.52,52.23,52.23,0,0,0-11,.36c-3.21.6-6.41,1.29-9.58,2-2.72.65-5.39,1.44-8.09,2.14a7.31,7.31,0,0,1-1.62.17,1.54,1.54,0,0,1-1.69-1.33,28.63,28.63,0,0,1-.89-12.41,14.59,14.59,0,0,1,1.35-3.94,5.11,5.11,0,0,1,2.47-2.31,47.22,47.22,0,0,1,10.8-3.19A99.55,99.55,0,0,1,351.27,186.89Z"/><path class="cls-2" d="M317.94,107.38c-3.58-.23-6.27-1.72-7.92-5a43.64,43.64,0,0,0-2.57-4.17,12.84,12.84,0,0,1-1.84-5.46,4.21,4.21,0,0,1,.68-3,14.59,14.59,0,0,1,4.49-4.32c3.14-2,6.61-3.32,9.88-5,2.9-1.51,5.78-3.06,8.68-4.58A86,86,0,0,1,343.77,70a62.44,62.44,0,0,1,7.89-2.1,30.8,30.8,0,0,1,10.31.39,64.39,64.39,0,0,1,9,2.19,21.1,21.1,0,0,1,4.8,2.5c1.56,1,1.68,2.65,1.17,4.24-1.12,3.55-3.26,6.27-7,7.3A43.12,43.12,0,0,0,361,88c-2.61,1.4-5.47,2.32-8.16,3.58-3.24,1.51-6.42,3.13-9.61,4.73-1.51.76-3,1.6-4.48,2.4-2.83,1.5-5.68,3-8.51,4.51a51.56,51.56,0,0,1-10.32,4A10,10,0,0,1,317.94,107.38Z"/><path class="cls-2" d="M394.55,279.49c-1.63-2.26-3.1-4.34-4.61-6.38-2.61-3.51-5.11-7.11-7.92-10.46a85,85,0,0,0-12.47-12,73.5,73.5,0,0,0-22.19-11.92,53.42,53.42,0,0,0-12.62-2.65c-5.73-.53-11.49-.79-17.23-1.13-.73-.05-1.46.11-2.18.09-1.76,0-2.33-.58-2.27-2.32a14.05,14.05,0,0,1,.52-3.22c.67-2.4,1.49-4.76,2.16-7.15,1.34-4.72,4-5.82,8.24-5,5.23,1,10.45,2.2,15.62,3.52a125.36,125.36,0,0,1,24.49,8.74,50.57,50.57,0,0,1,15,10.52c3.95,4.21,8.05,8.28,11.94,12.55a27.31,27.31,0,0,1,6,10.09,3.94,3.94,0,0,1,.16,1.77c-.7,4.55-1.46,9.1-2.21,13.65A9.37,9.37,0,0,1,394.55,279.49Z"/><path class="cls-2" d="M186.75,98.82a40.77,40.77,0,0,1,11.14,1.67,16,16,0,0,1,9.63,7.57,8.31,8.31,0,0,1,1.07,2.88c.25,2,.29,4,.38,6a1.73,1.73,0,0,1-1.13,1.71,7.32,7.32,0,0,1-4.54,1c-2.84-.56-5.71-1-8.5-1.84A35.18,35.18,0,0,0,183,116.34a11.25,11.25,0,0,0-7.2,3.52A43.12,43.12,0,0,0,168.48,130c-1.32,2.33-2.56,4.69-3.79,7.06a19.07,19.07,0,0,1-4.61,5.6c-4,3.49-8.12,6.93-12.29,10.25a44.87,44.87,0,0,0-10.27,11,19.36,19.36,0,0,1-2.89,3.5c-2.1,2-4,1.54-5-1.21a8.59,8.59,0,0,1,0-4.5c1.4-7.59,5.65-13.13,12.1-17.18,4-2.49,7.9-5,11.69-7.74a26.76,26.76,0,0,0,5.42-5A25.25,25.25,0,0,0,162,125.8,26.36,26.36,0,0,0,164,115a3.24,3.24,0,0,1,.17-1.07c1.47-4.28,3.65-8.12,7.36-10.83a20.35,20.35,0,0,1,9.39-3.7C182.88,99.12,184.82,99,186.75,98.82Z"/><path class="cls-2" d="M173.91,160.75a111.41,111.41,0,0,1,32.45,5,38,38,0,0,1,5.76,2.24c2.65,1.33,2.8,2.86.75,5a8.91,8.91,0,0,1-5.7,2.52,52.21,52.21,0,0,1-10.89-.47c-2.34-.25-4.7-.51-7.05-.6a25.35,25.35,0,0,0-9.41,1.84c-3.37,1.19-6.69,2.52-10,3.77-4.43,1.65-8.84,3.35-13.31,4.9-5.81,2-11,.71-15.57-3.28-.91-.79-1.75-1.67-2.6-2.53-3.09-3.11-2.59-6.32.52-9.36.64-.62,1.29-1.23,1.88-1.89a15.76,15.76,0,0,1,7.63-4.38,50.74,50.74,0,0,1,10.52-1.77C163.86,161.3,168.89,161.06,173.91,160.75Z"/><path class="cls-2" d="M325.05,50.07a38.64,38.64,0,0,1,13.28,2.29,20.21,20.21,0,0,1,4.15,2.21,3.2,3.2,0,0,1,1,4,9.28,9.28,0,0,1-6.06,6.07c-3.18,1-6.35,2.08-9.42,3.35-3.3,1.37-6.53,2.9-9.71,4.54-4.57,2.36-9,5-13.61,7.27a61.81,61.81,0,0,1-9.32,3.58c-3.11.93-7-1-8.63-3.76-.92-1.57-2-3.07-2.75-4.7a23.49,23.49,0,0,1-1.55-4.43,4.72,4.72,0,0,1,1.12-4.06c1.83-2.48,4.49-3.87,7.11-5.15,4.85-2.36,9.81-4.54,14.81-6.57a66.26,66.26,0,0,1,13.76-4C321.17,50.3,323.1,49.75,325.05,50.07Z"/><path class="cls-2" d="M267.06,287a27.93,27.93,0,0,1-.91,3.37,2.62,2.62,0,0,1-1.35,1.35c-5.07,2.13-8.78,6-12.45,9.86-1,1.1-2,2.24-3.09,3.34a3,3,0,0,1-3.11.89,22.22,22.22,0,0,1-9.71-4.72,27.57,27.57,0,0,1-9.11-14.37,7.31,7.31,0,0,1-.14-4.12c.43-1.37.9-1.78,2.35-1.79a14.58,14.58,0,0,0,8.3-2.26A27.24,27.24,0,0,0,242,275c1.37-1.37,2.55-2.92,3.81-4.4a7.25,7.25,0,0,1,3.23-2.27,4,4,0,0,1,4.27.76c4,3.81,7.88,7.72,11.74,11.66C266.54,282.3,267,284.35,267.06,287Z"/><path class="cls-2" d="M264.22,68.77a8.23,8.23,0,0,1-4.6-1.71c-1.11-.84-2.33-1.54-3.49-2.32a9.62,9.62,0,0,1-1.3-1c-3.32-3.06-3.38-5.38-.82-9.65s6.34-8,9.73-11.78c2.66-3,5.56-5.76,8.44-8.54a16,16,0,0,1,3.38-2.44c2.93-1.61,5.9-3.22,9.23-3.76a17.28,17.28,0,0,1,8.81.76,3.5,3.5,0,0,1,2.24,4.55c-.69,2.69-2.46,4.66-4.24,6.66s-3.7,4.34-5.5,6.55c-1.39,1.69-2.72,3.42-4.06,5.14s-2.65,3.31-3.87,5a58.25,58.25,0,0,1-6.85,8.49C270.07,66,268.9,67.4,267.18,68,266.22,68.33,265.21,68.52,264.22,68.77Z"/><path class="cls-2" d="M407.22,157a14.26,14.26,0,0,1-3-.42,78.92,78.92,0,0,1-7.69-3.28,49.11,49.11,0,0,0-12.86-4.92,92.79,92.79,0,0,0-12.46-1.93c-3.74-.24-7.47-.56-11.22-.46A85.36,85.36,0,0,0,335.15,150c-.75.25-1.49.39-1.91-.43s.06-1.35.62-1.9a62.39,62.39,0,0,1,8.84-6.94,54.56,54.56,0,0,1,12.11-6.09,38.37,38.37,0,0,1,10-2.49c2.94-.23,5.86-.66,8.83-.66a46.9,46.9,0,0,1,9.31,1.19,36.62,36.62,0,0,1,6.6,1.89A31,31,0,0,1,400,141a25.65,25.65,0,0,1,5.34,7.77,35.41,35.41,0,0,1,1.7,5.16A18.54,18.54,0,0,1,407.22,157Z"/><path class="cls-2" d="M98.21,166.61l-9.57-.67c-.88-2.07-2-4-4.18-4.85a12.76,12.76,0,0,0-11.88.81c-2.66,1.65-3,4.51-3,7.41,0,.41.1.83.18,1.51-5.35,0-10.55-.67-16-.83.19-2,.25-3.7.56-5.4a37.93,37.93,0,0,1,3-10.1c3-6.11,7.94-9.5,14.55-10.57a35.91,35.91,0,0,1,15.16.75c4.41,1.16,8,3.49,10.23,7.6a10.46,10.46,0,0,1,1.27,4.12c.19,3,.07,5.92,0,8.89A5,5,0,0,1,98.21,166.61Z"/><path class="cls-2" d="M383.75,325.56c-.19-3-.31-5.55-.54-8.14A90.7,90.7,0,0,0,376,289.49a103.78,103.78,0,0,0-11.57-20.41,101.14,101.14,0,0,0-22.53-22.57c-.56-.41-1.51-.79-1.05-1.63.53-1,1.42-.28,2.09,0a100.06,100.06,0,0,1,18.26,9.82,81.22,81.22,0,0,1,13.84,11.75,58.61,58.61,0,0,1,9.61,13.62A45.61,45.61,0,0,1,390,298.84a11.3,11.3,0,0,1-.39,3.05c-1.82,7.61-3.69,15.21-5.54,22.81A8.52,8.52,0,0,1,383.75,325.56Z"/><path class="cls-2" d="M341.22,216.73a2.65,2.65,0,0,1,2.62-1.59c4-.19,8-.65,12-.16,3,.36,6.05.42,9.05.83a55.89,55.89,0,0,1,20.51,6.57,33.68,33.68,0,0,1,11.23,10.44,20.85,20.85,0,0,1,3.32,7.41c.6,2.79-.07,5.44-.88,8a4.46,4.46,0,0,1-2.67,2.6,1.78,1.78,0,0,1-2.16-.45c-.75-.81-1.48-1.62-2.14-2.49a82.3,82.3,0,0,0-14.44-15.33,64.15,64.15,0,0,0-18.28-10.38,89.68,89.68,0,0,0-13.15-3.57,23.62,23.62,0,0,1-3.48-1A9.22,9.22,0,0,1,341.22,216.73Z"/><path class="cls-2" d="M68.31,221.19c15.18,6.57,30.61,11.71,46,17.32a30,30,0,0,1-.32,3.05c-.56,2.85-1.13,5.7-1.86,8.51a9,9,0,0,1-1.54,2.86,2,2,0,0,1-2.37.93,2.25,2.25,0,0,1-1.38-2.18c-.06-1.21.12-2.42.11-3.63,0-2.24,0-4.48-.18-6.71a2.15,2.15,0,0,0-1.58-2.22,2.72,2.72,0,0,0-2.86,1.2,15.49,15.49,0,0,0-1.49,2.89c-.68,1.62-1.18,3.33-2,4.9a8.17,8.17,0,0,1-2,2.51,2.21,2.21,0,0,1-3.63-.81,6,6,0,0,1-.63-2.25c-.08-1.58,0-3.16,0-4.74.05-1.82.15-3.63.21-5.45a4.41,4.41,0,0,0-.07-1.09,1.65,1.65,0,0,0-2.86-1,9.3,9.3,0,0,0-2.55,4.14c-.84,2.14-1.66,4.3-2.53,6.44A4.65,4.65,0,0,1,84,247.4c-.44.43-1.14,1-1.61.9a2,2,0,0,1-1.12-1.43,14.62,14.62,0,0,1-.23-3.79c.19-2.11.65-4.19.9-6.3.21-1.68.46-3.39-.45-5-1-1.8-2.47-2-3.71-.29a20.35,20.35,0,0,0-2,3.84c-1,2.26-1.91,4.58-3,6.83a4.61,4.61,0,0,1-1.58,1.71,2.09,2.09,0,0,1-3.42-.95,9.34,9.34,0,0,1-.76-3.51c0-2.67.27-5.33.46-8,.22-3,.48-6,.72-9.06C68.19,222,68.25,221.69,68.31,221.19Z"/><path class="cls-2" d="M252.73,21.41a19.4,19.4,0,0,1,.22,2.14,30.64,30.64,0,0,1-2.26,12.23,29,29,0,0,1-5.57,9,18.21,18.21,0,0,1-7.87,5,4,4,0,0,1-5.37-3.62A27,27,0,0,1,233,37.79c.72-2.88,1.59-5.72,2.37-8.58.47-1.69,1-3.38,1.35-5.08.66-2.95,1.22-5.93,1.9-8.87a23.48,23.48,0,0,1,1.07-2.9,4.14,4.14,0,0,1,5.4-2.35,10.16,10.16,0,0,1,6.86,6.43A36.59,36.59,0,0,1,253,21.37Z"/><path class="cls-2" d="M189.14,122.21c4,.72,8,1.83,10.93,5.19,1.62,1.86,1.55,3.64-.09,5.53a11.6,11.6,0,0,1-4.16,2.87,36.77,36.77,0,0,1-8.34,2.5A25.5,25.5,0,0,0,172.15,147c-1.93,2.26-3.9,4.48-5.8,6.77a11.07,11.07,0,0,1-6,3.54c-1.29.35-2.58.67-3.88.94a6.11,6.11,0,0,1-1.81.1c-1.37-.14-1.84-.8-1.13-1.94a17.37,17.37,0,0,1,3.23-4.12c2.3-2,4.86-3.61,7.27-5.46a31.63,31.63,0,0,0,3.14-2.76,9.37,9.37,0,0,0,2.31-4.47,16.1,16.1,0,0,1,3.4-6.51c1-1.17,1.65-2.62,2.67-3.76,3.26-3.64,7.1-6.35,12.12-7Z"/><path class="cls-2" d="M296,266c-.17.95-.3,1.91-.52,2.84-.36,1.6-.76,3.18-1.18,4.76a10.76,10.76,0,0,1-14.52,7.13,4.79,4.79,0,0,1-2.93-3.47,12.52,12.52,0,0,1,.33-5.93,15.08,15.08,0,0,1,.89-3c1-2.26.86-4.64.73-7a4.36,4.36,0,0,0-2.16-3.8,2.29,2.29,0,0,1-1.12-2.46c.26-3.12,3-5.69,6.69-6.14a7.75,7.75,0,0,1,6.46,2.3,25.13,25.13,0,0,1,7.13,13.24,8.62,8.62,0,0,1,.09,1.45Z"/><path class="cls-2" d="M201.21,70.7a51.39,51.39,0,0,1-15-1.38c-1.66-.4-2.09-1.11-1.19-2.54A6.85,6.85,0,0,1,186.82,65a62.32,62.32,0,0,1,10.65-6.26,37,37,0,0,1,6.64-1.82,50.26,50.26,0,0,1,11.71-1.39,33.14,33.14,0,0,1,13.11,2.58l.16.08a2.28,2.28,0,0,1,1.68,1.94c.07,1-.79,1.59-1.61,2-1.28.68-2.58,1.35-3.91,1.92-2.18.92-4.39,1.76-6.59,2.64-2.87,1.14-5.73,2.33-8.62,3.4a9.84,9.84,0,0,1-3,.56C205.1,70.76,203.15,70.7,201.21,70.7Z"/><path class="cls-2" d="M238.94,87.72c-1.37-.31-2.92-.64-4.45-1-2.3-.54-4.58-1.2-6.91-1.62-3.76-.69-7.09-2.45-10.54-3.91-1.16-.49-1.33-1.34-.46-2.32a5.87,5.87,0,0,1,2-1.48,65.27,65.27,0,0,1,12.31-3.84,25.32,25.32,0,0,1,5.78-.2c2.84.1,5.69.25,8.52.55a36.19,36.19,0,0,1,15,5.26,10.09,10.09,0,0,1,1.88,1.44c1.35,1.32,1.05,2.7-.75,3.33a21.73,21.73,0,0,1-3.68,1c-3.48.56-7,1-10.44,1.54-2.1.32-4.19.7-6.28,1C240.33,87.59,239.72,87.63,238.94,87.72Z"/><path class="cls-2" d="M243.55,210.79a18,18,0,0,1-1.77,7,3.25,3.25,0,0,1-3.29,1.77,8.18,8.18,0,0,1-2.78-.76c-5.12-2.07-9.25-5.61-13.3-9.22-3.44-3.07-6.7-6.34-10-9.54a13.21,13.21,0,0,1-1.44-1.64c-.86-1.15-.56-2.11.9-2.32a28.63,28.63,0,0,1,5.07-.26c2.66.1,5.31.35,8,.58a36.41,36.41,0,0,1,3.61.49,19.92,19.92,0,0,1,14,9.56A7.65,7.65,0,0,1,243.55,210.79Z"/><path class="cls-2" d="M311.86,182.61c-1.07-1.14-2.21-2.21-3.17-3.42q-8.07-10.08-16.06-20.23a18.24,18.24,0,0,1-3.26-6.64,6.64,6.64,0,0,1,1.45-5.9,3.47,3.47,0,0,1,3.57-1.28,12.78,12.78,0,0,1,6,3.34c4.13,3.59,7.14,8.07,9.89,12.73,1.08,1.82,1.89,3.79,2.8,5.71a8.83,8.83,0,0,1,.61,4.8c-.27,2.77-.41,5.56-.66,8.33a18.53,18.53,0,0,1-.56,2.4Z"/><path class="cls-2" d="M181.2,183.24a3,3,0,0,1,1.68-2.16,19.35,19.35,0,0,1,9.17-2.61,76.53,76.53,0,0,1,18.45,1.1c4.66.77,9.31,1.6,13.92,2.62a26.47,26.47,0,0,1,5.39,2.15,6.86,6.86,0,0,1,2.13,1.67,1.85,1.85,0,0,1-.7,3.22,10.84,10.84,0,0,1-2.78.82,49.89,49.89,0,0,1-6,.5c-5.07,0-10.14,0-15.21-.11-1.69,0-3.38-.2-5.07-.39a5.51,5.51,0,0,1-1.5-.61c-3.11-1.37-6.2-2.77-9.31-4.12a25.58,25.58,0,0,0-8-1.7C182.73,183.55,182,183.39,181.2,183.24Z"/><path class="cls-2" d="M309.08,221.39a19.92,19.92,0,0,1-3.78,10.3,2,2,0,0,1-1.68.88,5.28,5.28,0,0,1-3.57-1.08,12.55,12.55,0,0,1-3.63-4c-2.15-4.14-4.35-8.25-6.41-12.43a11.92,11.92,0,0,1-1-9c1.28-4.15,4.3-5.33,8-3.09a26.62,26.62,0,0,1,7.7,7.62,21.61,21.61,0,0,1,4,8.3C308.86,219.71,309,220.55,309.08,221.39Z"/><path class="cls-2" d="M233.81,168.73a11.73,11.73,0,0,1-9.35-4.9,6.15,6.15,0,0,1,.63-7.43,16,16,0,0,1,2.58-2.27c3.58-2.66,7.7-4.3,11.68-6.21.76-.37,1.54-.72,2.31-1.07a7.41,7.41,0,0,1,5.66-.25c2.56.85,3.57,2.54,3,5.18a20.49,20.49,0,0,1-3.94,8.3,25.53,25.53,0,0,1-10.14,8A13,13,0,0,1,233.81,168.73Z"/><path class="cls-2" d="M309,151.12c-1.89-1.34-2.8-2.94-4-4.29-3.25-3.72-6.67-7.16-11.59-8.72a12,12,0,0,1-3.84-2.38,17.34,17.34,0,0,1-4.4-4.74c-1.18-2.19-.61-4.09.52-5.94,1.49-2.43,3.83-3,6.47-2.63a26.66,26.66,0,0,1,11.19,4.51,15.38,15.38,0,0,1,7,12.39,66.31,66.31,0,0,1-.36,8.9A12.45,12.45,0,0,1,309,151.12Z"/><path class="cls-2" d="M182.13,47.44c3.27,0,5.38,2,5.65,5.33a6.44,6.44,0,0,1-2.08,5.39c-2.29,2.25-5.14,3.64-7.91,5.14-2.56,1.38-5.21,2.58-7.8,3.91a5.42,5.42,0,0,1-4.25.15,6.86,6.86,0,0,1-4.87-7.85c.4-2.15,2-3.34,3.62-4.31,3.5-2.06,7.09-4,10.7-5.83A13.42,13.42,0,0,1,182.13,47.44Z"/><path class="cls-2" d="M310.79,196.76c-.22,1.13-.37,2.4-.73,3.61a2.6,2.6,0,0,1-3.53,1.87,16.17,16.17,0,0,1-7-4.16,27.48,27.48,0,0,1-5.67-8.61c-1.07-2.44-2.24-4.84-3.37-7.25a5.41,5.41,0,0,1,.71-5.63,5,5,0,0,1,5.71-1,20,20,0,0,1,3.69,2.61c2.75,2.37,4.6,5.47,6.52,8.5a19.83,19.83,0,0,1,3.1,6.53C310.49,194.33,310.61,195.48,310.79,196.76Z"/><path class="cls-2" d="M266.18,85.11c3.77.61,7.57,1.08,11.3,1.87a24.94,24.94,0,0,1,9.78,4.7c.78.58,1.68,1.24,1.4,2.34s-1.3,1.16-2.22,1.28c-3.31.43-6.62.88-9.93,1.28-2,.24-4,.47-6,.6a9.13,9.13,0,0,1-2.86-.22c-3-.78-6-1.53-8.93-2.56a77.87,77.87,0,0,1-7.3-3.27c-.93-.45-1-1.14-.26-1.9a3.9,3.9,0,0,1,1.47-1c4-1.31,8-2.61,12.21-2.84.42,0,.85,0,1.27,0Z"/><path class="cls-2" d="M234.32,240.52c-2.95-.22-5.25-.73-6.91-2.67s-3.24-3.78-4.74-5.76c-1.19-1.58-2.13-3.35-3.3-5-2.3-3.11-2.72-6.84-3.58-10.42-.33-1.35.72-2.11,2-1.43a58.6,58.6,0,0,1,6.59,3.87,101.09,101.09,0,0,1,10,7.79,14.76,14.76,0,0,1,4.62,8.67,3.41,3.41,0,0,1-1.8,3.84A22.68,22.68,0,0,1,234.32,240.52Z"/><path class="cls-2" d="M287,223.1a2.8,2.8,0,0,1,2.15,1.43c1.84,2.64,3.67,5.28,5.42,8a26.4,26.4,0,0,0,4.76,5.92,7.19,7.19,0,0,1,2.15,4.9,14.82,14.82,0,0,1-1.26,7.81c-.68,1.53-2,2.37-4.19,1.63-2.65-.9-4.16-3.06-6-4.88a14.9,14.9,0,0,1-4.43-12.25c.27-3.62.46-7.24.71-10.86a5.24,5.24,0,0,1,.29-1.23C286.69,223.41,286.86,223.29,287,223.1Z"/><path class="cls-2" d="M257,170.72a15.1,15.1,0,0,1-2.77,7.35,24.06,24.06,0,0,1-10,7.65,6.46,6.46,0,0,1-2.8.55,4.18,4.18,0,0,1-3.92-3.24,13,13,0,0,1-.38-5.93,6,6,0,0,1,2-3.78c2.16-1.85,4.21-3.85,6.51-5.51a17.82,17.82,0,0,1,5-2.41C254,164.33,257.08,166.8,257,170.72Z"/><path class="cls-2" d="M304.45,123.84c-1.2-.75-2-1.2-2.72-1.71-2.7-1.85-5.42-3.69-8.61-4.57a36.63,36.63,0,0,0-4.29-.74,14.82,14.82,0,0,1-8.57-4c-2.35-2.32-1.19-6.89,1.93-7.94a12.33,12.33,0,0,1,3.18-.66,22.61,22.61,0,0,1,10,1.59,13,13,0,0,1,7.54,8,52.54,52.54,0,0,1,1.8,7.4A10.55,10.55,0,0,1,304.45,123.84Z"/><path class="cls-2" d="M236,137.82a11.37,11.37,0,0,1-2.66,7.42,5.7,5.7,0,0,1-2.5,1.72,20.4,20.4,0,0,1-9.12.87c-1.86-.32-2.24-.76-2.06-2.67.45-4.76,2.77-8.17,7.36-9.86,1.07-.39,2.16-.77,3.25-1.09a5.94,5.94,0,0,1,1.62-.24C234.09,133.93,236.29,135,236,137.82Z"/><path class="cls-2" d="M242.91,196a6.46,6.46,0,0,1,2.86-6c1.8-1.23,3.65-2.39,5.5-3.52a6.63,6.63,0,0,1,1.7-.61,1.72,1.72,0,0,1,2.13.92,9.41,9.41,0,0,1,1.14,7.84,13.71,13.71,0,0,1-6.22,8,6.38,6.38,0,0,1-1.67.68,3,3,0,0,1-3.6-1.35C243.65,200.13,242.72,198.22,242.91,196Z"/><path class="cls-2" d="M16.59,336.12l6.46,1c1,.17,2.05.28,3,.54,2.49.65,3,2.12,1.51,4.13a11.14,11.14,0,0,1-2.32,2.28,3.59,3.59,0,0,1-4.09.48,8.84,8.84,0,0,0-1.34-.57,2.81,2.81,0,0,0-3.55,1c-.79.92-1.55,1.88-2.41,2.72a3.76,3.76,0,0,1-4.67.75c-3.49-1.61-3.89-3.27-1.45-6.3,1-1.28,2.18-2.45,3.27-3.67A7,7,0,0,1,16.59,336.12Z"/><path class="cls-2" d="M12,353.17A16.53,16.53,0,0,1,17.47,355a4.39,4.39,0,0,1,2,4,3.58,3.58,0,0,1-3.09,2.88c-1.43.25-2.87.42-4.32.53-1.88.14-1.92.19-2.57,1.92a19.52,19.52,0,0,1-1.56,3.26,3,3,0,0,1-3.07,1.53A3.25,3.25,0,0,1,2,367.14,5.89,5.89,0,0,1,2,361.72c.94-1.76,1.74-3.61,2.82-5.27C6.27,354.14,8.49,353,12,353.17Z"/><path class="cls-2" d="M15.88,376.43c-.22,1.61-.31,3-.63,4.32a3.09,3.09,0,0,1-2.62,2.48,3,3,0,0,1-3.08-1.52,9.25,9.25,0,0,1-1.26-8.33,9.6,9.6,0,0,1,6.18-6.47,5.24,5.24,0,0,1,6,1.38,6.34,6.34,0,0,1,.6,6,3.51,3.51,0,0,1-3.34,2.1Z"/></g></svg>